<?xml version="1.0" encoding="iso-8859-1"?>
<!-- Generator: Adobe Illustrator 19.0.0, SVG Export Plug-In . SVG Version: 6.00 Build 0)  -->
<svg version="1.1" id="Layer_1" xmlns="http://www.w3.org/2000/svg" xmlns:xlink="http://www.w3.org/1999/xlink" x="0px" y="0px"
	 viewBox="0 0 512 512" style="enable-background:new 0 0 512 512;" xml:space="preserve">
<g>
	<g>
		<g>
			<path d="M132.267,59.733c7.057,0,12.8-5.743,12.8-12.8c0-7.057-5.743-12.8-12.8-12.8s-12.8,5.743-12.8,12.8
				C119.467,53.99,125.21,59.733,132.267,59.733z"/>
			<path d="M264.533,341.333h102.4c14.114,0,25.6-11.486,25.6-25.6v-93.867h76.8c4.71,0,8.533-3.823,8.533-8.533
				s-3.823-8.533-8.533-8.533h-78.37c-3.541-9.916-12.919-17.067-24.03-17.067h-102.4c-14.114,0-25.6,11.486-25.6,25.6v102.4
				C238.933,329.848,250.419,341.333,264.533,341.333z M256,213.333c0-4.702,3.831-8.533,8.533-8.533h102.4
				c4.702,0,8.533,3.831,8.533,8.533v102.4c0,4.702-3.831,8.533-8.533,8.533h-102.4c-4.702,0-8.533-3.831-8.533-8.533V213.333z"/>
			<path d="M85.333,119.467c9.412,0,17.067-7.654,17.067-17.067c0-9.412-7.654-17.067-17.067-17.067
				c-9.412,0-17.067,7.654-17.067,17.067C68.267,111.812,75.921,119.467,85.333,119.467z"/>
			<path d="M384,460.8h-51.2c-4.71,0-8.533,3.823-8.533,8.533s3.823,8.533,8.533,8.533H384c4.71,0,8.533-3.823,8.533-8.533
				S388.71,460.8,384,460.8z"/>
			<path d="M469.333,34.133c-23.526,0-42.667,19.14-42.667,42.667v17.067c0,4.71,3.823,8.533,8.533,8.533s8.533-3.823,8.533-8.533
				V76.8c0-14.114,11.486-25.6,25.6-25.6s25.6,11.486,25.6,25.6v247.467c0,56.73-65.357,102.4-119.467,102.4H136.533
				c-54.11,0-119.467-45.67-119.467-102.4v-102.4h196.267c4.71,0,8.533-3.823,8.533-8.533s-3.823-8.533-8.533-8.533H8.533
				c-4.71,0-8.533,3.823-8.533,8.533v110.933c0,67.277,73.395,119.467,136.533,119.467h238.933
				c63.138,0,136.533-52.19,136.533-119.467V76.8C512,53.274,492.86,34.133,469.333,34.133z"/>
			<path d="M179.2,460.8H128c-4.71,0-8.533,3.823-8.533,8.533s3.823,8.533,8.533,8.533h51.2c4.71,0,8.533-3.823,8.533-8.533
				S183.91,460.8,179.2,460.8z"/>
			<path d="M145.067,170.667c14.114,0,25.6-11.486,25.6-25.6s-11.486-25.6-25.6-25.6s-25.6,11.486-25.6,25.6
				S130.953,170.667,145.067,170.667z M145.067,136.533c4.702,0,8.533,3.831,8.533,8.533c0,4.702-3.831,8.533-8.533,8.533
				c-4.702,0-8.533-3.831-8.533-8.533C136.533,140.365,140.365,136.533,145.067,136.533z"/>
		</g>
	</g>
</g>
<g>
</g>
<g>
</g>
<g>
</g>
<g>
</g>
<g>
</g>
<g>
</g>
<g>
</g>
<g>
</g>
<g>
</g>
<g>
</g>
<g>
</g>
<g>
</g>
<g>
</g>
<g>
</g>
<g>
</g>
</svg>
