<?xml version="1.0" encoding="iso-8859-1"?>
<!-- Generator: Adobe Illustrator 19.0.0, SVG Export Plug-In . SVG Version: 6.00 Build 0)  -->
<svg version="1.1" id="Layer_1" xmlns="http://www.w3.org/2000/svg" xmlns:xlink="http://www.w3.org/1999/xlink" x="0px" y="0px"
	 viewBox="0 0 512 512" style="enable-background:new 0 0 512 512;" xml:space="preserve">
<path style="fill:#F07057;" d="M304.007,117.49c0-24.455,19.824-44.279,44.279-44.279s44.279,19.824,44.279,44.279H304.007z"/>
<path style="fill:#E8E8E8;" d="M373.093,473.397H138.907c-71.083,0-128.708-57.624-128.708-128.708v-42.456h491.602v42.456
	C501.801,415.773,444.176,473.397,373.093,473.397z"/>
<path d="M501.801,292.034h-34.492V72.141c0-35.7-29.045-64.745-64.745-64.745c-32.919,0-60.159,24.701-64.207,56.538
	c-25.312,4.682-44.55,26.908-44.55,53.555c0,5.632,4.567,10.199,10.199,10.199h88.558c5.632,0,10.199-4.567,10.199-10.199
	c0-26.383-18.855-48.441-43.796-53.42c3.807-20.611,21.901-36.276,43.598-36.276c24.454,0,44.346,19.894,44.346,44.346v219.894
	H10.199C4.566,292.034,0,296.601,0,302.233v42.456c0,70.217,52.374,128.425,120.107,137.63v12.085
	c0,5.632,4.566,10.199,10.199,10.199c5.633,0,10.199-4.567,10.199-10.199v-10.808h230.988v10.808
	c0,5.632,4.567,10.199,10.199,10.199c5.632,0,10.199-4.567,10.199-10.199v-12.085C459.626,473.115,512,414.907,512,344.689v-42.456
	C512,296.601,507.433,292.034,501.801,292.034z M380.806,107.291h-65.041c4.345-13.826,17.279-23.88,32.521-23.88
	S376.461,93.466,380.806,107.291z M491.602,344.689c0,65.345-53.163,118.509-118.509,118.509H138.907
	c-65.345,0-118.509-53.163-118.509-118.509v-32.257h471.203V344.689z"/>
<path d="M277.228,351.537h15.642c5.632,0,10.199-4.567,10.199-10.199c0-5.632-4.567-10.199-10.199-10.199h-15.642
	c-5.632,0-10.199,4.567-10.199,10.199C267.028,346.97,271.596,351.537,277.228,351.537z"/>
<path d="M342.03,351.537h122.9c5.632,0,10.199-4.567,10.199-10.199c0-5.632-4.567-10.199-10.199-10.199h-122.9
	c-5.632,0-10.199,4.567-10.199,10.199C331.831,346.97,336.397,351.537,342.03,351.537z"/>
<g>
</g>
<g>
</g>
<g>
</g>
<g>
</g>
<g>
</g>
<g>
</g>
<g>
</g>
<g>
</g>
<g>
</g>
<g>
</g>
<g>
</g>
<g>
</g>
<g>
</g>
<g>
</g>
<g>
</g>
</svg>
