<?xml version="1.0" encoding="iso-8859-1"?>
<!-- Generator: Adobe Illustrator 19.0.0, SVG Export Plug-In . SVG Version: 6.00 Build 0)  -->
<svg version="1.1" id="Layer_1" xmlns="http://www.w3.org/2000/svg" xmlns:xlink="http://www.w3.org/1999/xlink" x="0px" y="0px"
	 viewBox="0 0 512 512" style="enable-background:new 0 0 512 512;" xml:space="preserve">
<g>
	<g>
		<g>
			<rect x="224.651" y="200.857" width="15.675" height="15.675"/>
			<rect x="272.72" y="200.857" width="15.675" height="15.675"/>
			<polygon points="240.325,247.88 247.639,247.88 247.639,256.24 263.314,256.24 263.314,247.88 272.719,247.88 272.719,232.205 
				240.325,232.205 			"/>
			<path d="M351.894,284.209v-12.198c0-8.92,7.257-16.177,16.177-16.177h16.01c17.564,0,31.853-14.29,31.853-31.853
				c0-17.563-14.29-31.852-31.853-31.852h-16.01v15.675h16.01c8.921,0,16.179,7.257,16.179,16.177
				c0,8.921-7.257,16.179-16.179,16.179h-16.01c-17.564,0-31.852,14.289-31.852,31.852v8.173h-9.161V111.172l-49.884,41.614h-42.408
				l-50.872-41.337v168.734h-11.815c-9.658,0-17.736,6.889-19.582,16.01H56.034v97.722C56.034,459.028,109.006,512,174.118,512
				h163.759c65.112,0,118.084-52.972,118.084-118.084v-97.722h-96.463C358.513,291.318,355.732,287.098,351.894,284.209z
				 M316.174,295.859h23.743c2.374,0,4.306,1.933,4.306,4.307l0.001,27.881c0,8.921-7.257,16.179-16.179,16.179
				c-8.92,0-16.177-7.257-16.177-16.179v-27.881h-0.001C311.868,297.792,313.8,295.859,316.174,295.859z M199.57,144.383
				l29.631,24.078h53.654l28.529-23.8v136.128c-7.701,1.906-13.64,8.276-14.913,16.206h-80.943
				c-1.33-8.286-7.753-14.882-15.958-16.446V144.383z M296.227,329.389H215.77c0.019-0.445,0.035-0.892,0.035-1.342v-15.378h80.389
				v15.378C296.193,328.497,296.208,328.944,296.227,329.389z M172.08,295.859h23.743c2.374,0,4.306,1.933,4.306,4.307v27.881
				c0,8.921-7.257,16.179-16.177,16.179s-16.177-7.257-16.177-16.179v-27.881h-0.001
				C167.774,297.792,169.706,295.859,172.08,295.859z M359.902,328.046v-16.177h80.388v17.52h-0.002h-16.045v15.675h16.045v48.852
				c0,27.183-10.649,51.923-27.99,70.277h-51.799v15.675h32.996c-16.026,10.405-35.125,16.458-55.614,16.458h-163.76
				c-20.489,0-39.589-6.053-55.614-16.458h34.041v-15.675H99.7c-17.342-18.353-27.99-43.093-27.99-70.277v-48.852h24.405v-15.675
				H71.71v-17.52h80.389v16.177c0,0.45,0.016,0.897,0.034,1.342h-40.343v15.675h45.255c5.653,8.907,15.597,14.837,26.906,14.837
				s21.253-5.929,26.906-14.837h90.282c5.653,8.907,15.597,14.837,26.906,14.837c11.309,0,21.253-5.929,26.907-14.837h53.614
				v-15.675h-48.702C359.886,328.943,359.902,328.496,359.902,328.046z"/>
			<rect x="264.36" y="265.647" width="15.675" height="15.675"/>
			<path d="M255.999,99.543l45.165-45.166c6.016-6.017,9.329-14.015,9.329-22.525c0-8.508-3.313-16.507-9.329-22.523
				C295.149,3.314,287.149,0,278.641,0s-16.508,3.314-22.524,9.33l-0.118,0.119l-0.118-0.118C249.864,3.314,241.865,0,233.358,0
				c-8.509,0-16.509,3.314-22.525,9.33c-6.016,6.017-9.329,14.015-9.329,22.523c0,8.509,3.313,16.508,9.329,22.525L255.999,99.543z
				 M221.917,20.413c3.056-3.056,7.118-4.738,11.441-4.738c4.321,0,8.383,1.682,11.438,4.739l11.203,11.202l11.203-11.203
				c3.055-3.056,7.117-4.738,11.438-4.738c4.322,0,8.384,1.682,11.439,4.738v0.001c6.309,6.308,6.309,16.57,0,22.879l-34.081,34.082
				l-34.081-34.082C215.608,36.985,215.608,26.721,221.917,20.413z"/>
			<path d="M501.297,129.408c-12.42-12.418-32.629-12.419-45.047,0l-0.119,0.118l-0.117-0.118c-12.422-12.42-32.628-12.42-45.049,0
				c-12.419,12.42-12.419,32.628,0,45.047l45.167,45.166l45.168-45.167C513.716,162.036,513.716,141.828,501.297,129.408z
				 M490.212,163.372l-34.082,34.082l-34.081-34.081c-6.308-6.309-6.308-16.573,0-22.88c3.154-3.155,7.296-4.732,11.439-4.732
				c4.143,0,8.287,1.578,11.44,4.732l11.202,11.201l11.203-11.201c6.307-6.309,16.573-6.309,22.88,0
				C496.52,146.799,496.52,157.064,490.212,163.372z"/>
			<path d="M101.035,129.408c-12.422-12.42-32.628-12.42-45.048,0l-0.117,0.118l-0.118-0.118c-12.422-12.42-32.628-12.42-45.048,0
				c-12.419,12.42-12.419,32.628,0,45.047l45.168,45.166l45.167-45.167C113.452,162.036,113.452,141.828,101.035,129.408z
				 M89.949,163.372l-34.081,34.082l-34.082-34.081c-6.308-6.309-6.308-16.573,0-22.88c3.154-3.155,7.296-4.731,11.44-4.731
				s8.287,1.577,11.441,4.731l11.202,11.201l11.202-11.201c6.306-6.309,16.572-6.309,22.88,0
				C96.257,146.799,96.257,157.064,89.949,163.372z"/>
			<rect x="168.221" y="464.195" width="176.603" height="15.675"/>
		</g>
	</g>
</g>
<g>
</g>
<g>
</g>
<g>
</g>
<g>
</g>
<g>
</g>
<g>
</g>
<g>
</g>
<g>
</g>
<g>
</g>
<g>
</g>
<g>
</g>
<g>
</g>
<g>
</g>
<g>
</g>
<g>
</g>
</svg>
