<?xml version="1.0" encoding="iso-8859-1"?>
<!-- Generator: Adobe Illustrator 19.0.0, SVG Export Plug-In . SVG Version: 6.00 Build 0)  -->
<svg version="1.1" id="Layer_1" xmlns="http://www.w3.org/2000/svg" xmlns:xlink="http://www.w3.org/1999/xlink" x="0px" y="0px"
	 viewBox="0 0 512 512" style="enable-background:new 0 0 512 512;" xml:space="preserve">
<g>
	<polygon style="fill:#AE7A66;" points="357.922,0 357.922,32.04 256,54.795 154.078,32.04 154.078,0 	"/>
	<polygon style="fill:#AE7A66;" points="443.255,126.453 443.255,512 357.922,512 335.167,115.075 	"/>
</g>
<polygon style="fill:#FFD608;" points="357.922,32.04 443.255,126.453 335.167,126.453 "/>
<polygon style="fill:#FFE76D;" points="357.922,32.04 357.922,126.453 213.333,149.208 68.745,126.453 154.078,32.04 "/>
<polygon style="fill:#FFD608;" points="357.922,126.453 357.922,512 262.736,512 68.745,386.697 68.745,126.453 "/>
<path style="fill:#AE7A66;" d="M108.237,361.961h34.133l-34.133-74.775c0-42.906,33.815-77.722,76.72-77.722
	s76.72,34.839,76.72,77.744h56.57c0,0,0.182,16.612,0.182,37.057c0,20.503-16.589,37.092-37.046,37.092h-18.648V512H68.745V386.697
	L108.237,361.961z"/>
<path style="fill:#945136;" d="M184.957,285.992v103.572c0,21.185-17.169,38.354-38.354,38.354
	c-21.242,0-38.366-17.169-38.366-38.354V287.186c0-1.331,0.034-2.651,0.102-3.959c0-0.068,0-0.125,0.011-0.182
	c1.502-19.809,18.011-35.408,38.252-35.408C167.788,247.637,184.957,264.806,184.957,285.992z"/>
<g>
</g>
<g>
</g>
<g>
</g>
<g>
</g>
<g>
</g>
<g>
</g>
<g>
</g>
<g>
</g>
<g>
</g>
<g>
</g>
<g>
</g>
<g>
</g>
<g>
</g>
<g>
</g>
<g>
</g>
</svg>
