<?xml version="1.0" encoding="iso-8859-1"?>
<!-- Generator: Adobe Illustrator 16.0.0, SVG Export Plug-In . SVG Version: 6.00 Build 0)  -->
<!DOCTYPE svg PUBLIC "-//W3C//DTD SVG 1.1//EN" "http://www.w3.org/Graphics/SVG/1.1/DTD/svg11.dtd">
<svg version="1.1" id="Capa_1" xmlns="http://www.w3.org/2000/svg" xmlns:xlink="http://www.w3.org/1999/xlink" x="0px" y="0px"
	 width="318.967px" height="318.967px" viewBox="0 0 318.967 318.967" style="enable-background:new 0 0 318.967 318.967;"
	 xml:space="preserve">
<g>
	<path d="M274.144,131.172c1.224-0.612,1.836-1.224,3.06-1.836c23.868-15.3,33.048-43.452,12.852-69.156
		c-17.747-21.42-38.556-15.3-53.855-1.224c1.836-21.42-18.972-48.96-36.72-55.08c-26.316-8.568-48.349,8.568-55.081,31.212
		c-7.344-23.256-37.944-36.72-59.976-25.092c-11.628,6.12-20.196,18.36-20.196,31.824c0,3.672,0.612,9.792,1.836,14.688
		c-20.196-6.12-44.676,0-54.468,20.196c-8.568,17.748-1.836,48.348,14.076,64.26c-18.972,9.18-28.152,37.944-25.092,58.751
		c2.448,14.076,8.568,29.376,23.256,34.885c12.24,4.283,29.988,2.447,44.064-2.448c-18.36,26.928-6.732,69.768,25.092,80.784
		c17.748,6.12,41.004,7.344,55.08-6.12c11.016-10.404,17.749-23.256,17.136-36.108c17.136,22.645,51.408,29.988,75.888,14.688
		c23.257-14.688,26.929-39.78,16.524-61.2c26.928,6.731,52.02-9.792,59.976-41.004C324.939,153.815,301.684,129.948,274.144,131.172
		z M262.516,112.812c3.672,6.12,2.447,11.016-0.612,15.3c-1.836,1.836-4.896,3.672-7.956,4.896c-0.612,0-1.224,0-1.224,0.612l0,0
		c-2.448-9.18-6.732-18.36-12.853-27.54C247.215,103.632,257.007,104.855,262.516,112.812z M220.287,81.6
		c0.612,1.224,2.448,1.224,3.061,0c0.611-0.612,1.224-1.224,1.836-1.836c4.283-1.224,9.18-1.224,12.239,1.836
		c5.509,5.508,1.836,14.688-3.06,18.36c-4.896-6.12-10.404-12.24-16.524-17.136C218.451,82.211,219.675,81.6,220.287,81.6z
		 M212.943,78.54c-8.568-6.732-17.136-11.628-26.928-15.3C197.644,49.776,219.063,62.627,212.943,78.54z M157.863,47.939
		c4.285-3.672,8.569-3.06,12.241,1.224c0.611,0,0.611,0.612,1.224,0.612c1.836,1.836,3.06,3.672,4.896,6.12
		c0.611,1.224,1.836,1.836,2.447,2.448c0,0.612,0,1.224,0.612,1.836c-10.404-3.06-21.42-4.284-31.212-2.448
		c0-0.612,0.612-1.224,0.612-1.836c1.224-3.06,3.06-4.896,6.12-6.732C154.803,49.164,156.027,48.552,157.863,47.939z
		 M122.979,49.164c7.956-4.896,12.24,1.836,14.688,7.956c0,0,0,0.612,0,1.224c-6.732-0.612-13.464,0.612-19.584,2.448
		C117.471,55.896,118.695,51.612,122.979,49.164z M91.767,60.792c6.12-9.18,12.24-4.896,16.524,0
		c0.612,1.224,1.836,1.836,2.448,3.06c-7.344,3.672-13.464,7.956-19.584,13.464C89.931,71.808,88.707,65.076,91.767,60.792z
		 M74.019,80.375c0.612,0,1.224,0,2.448,0c3.06,0,7.344,1.224,10.404,1.836c-6.12,6.732-11.016,14.688-15.3,23.256
		C66.675,97.512,56.883,85.271,74.019,80.375z M64.227,109.751c1.224,0,2.448,0,3.672,0.612c0.612,0,1.224,0,1.836,0
		c-4.284,9.792-7.344,20.196-7.956,30.6c-6.732-2.448-12.852-7.344-13.464-15.912C47.703,115.872,55.659,109.751,64.227,109.751z
		 M48.927,163.608c-0.612-1.836-0.612-3.672-1.224-4.896c0.612-0.612,0.612-1.224,1.224-1.836c1.836-3.06,4.284-4.896,4.896-7.956
		c0.612,0,0.612-0.612,1.224-0.612c1.224-0.612,3.06-1.224,4.896-1.836c-0.612,10.404,0.612,20.808,3.06,29.988
		c-0.612,0-1.224,0-1.224,0C51.987,174.624,51.375,174.624,48.927,163.608z M63.615,208.896c-5.508-6.732-6.12-17.748,2.448-22.032
		c3.672,10.404,9.792,20.196,16.524,28.152c-1.836,0.611-3.06,0.611-4.896,0.611C72.183,215.627,66.675,213.792,63.615,208.896z
		 M83.199,230.927c-0.612-3.672,0-7.955,2.448-12.239l0,0c8.568,8.567,18.36,15.3,29.988,20.195
		C105.843,255.408,85.035,246.228,83.199,230.927z M129.711,258.467c-6.732-4.283-7.956-11.016-8.568-18.359
		c9.792,3.06,20.808,4.896,32.436,4.284c0,0.611,0,1.224,0,1.224C151.131,256.631,139.503,264.587,129.711,258.467z
		 M181.119,255.408c-7.956-0.612-13.464-3.672-17.136-9.18c-0.612-0.612-1.225-1.225-1.836-2.448
		c11.016-1.224,22.032-4.896,32.436-9.792C197.644,245.616,197.644,256.631,181.119,255.408z M215.392,232.152
		c-3.673,0-7.345-1.225-10.404-3.061c9.18-5.508,17.748-12.239,24.479-19.584l0.612,0.612
		C231.303,225.419,226.407,232.763,215.392,232.152z M234.976,203.387c6.731-8.567,12.239-18.359,15.911-28.764
		c5.509,4.284,11.017,9.792,11.017,17.748C261.291,208.896,245.379,208.284,234.976,203.387z M264.963,161.772
		c-2.447,1.224-7.956,1.836-11.628,2.447c1.225-6.12,1.225-11.627,1.225-18.359c0-1.836-0.612-3.672-0.612-4.896l0,0
		c1.836,0,3.672,0,5.508-0.612C266.799,145.248,276.591,155.04,264.963,161.772z"/>
</g>
<g>
</g>
<g>
</g>
<g>
</g>
<g>
</g>
<g>
</g>
<g>
</g>
<g>
</g>
<g>
</g>
<g>
</g>
<g>
</g>
<g>
</g>
<g>
</g>
<g>
</g>
<g>
</g>
<g>
</g>
</svg>
