<?xml version="1.0" encoding="UTF-8" standalone="no"?>
<!DOCTYPE svg PUBLIC "-//W3C//DTD SVG 1.1//EN" "http://www.w3.org/Graphics/SVG/1.1/DTD/svg11.dtd">
<svg version="1.1" xmlns="http://www.w3.org/2000/svg" xmlns:xlink="http://www.w3.org/1999/xlink" preserveAspectRatio="xMidYMid meet" viewBox="0 0 80 80" width="149" height="149"><defs><path d="M36.94 5C36.89 4.69 37.35 4.85 37.37 4.6C37.79 4.75 37.19 5.03 36.94 5Z" id="b7aWGZZfyW"></path><path d="M46.15 5.26C45.07 5.63 44.62 4.85 46.15 5.26C46.15 5.26 46.15 5.26 46.15 5.26Z" id="bZSA24hla"></path><path d="M52.34 6.45C52.28 6.78 51.78 6.46 51.91 6.19C52.09 6.23 52.13 6.42 52.34 6.45Z" id="gZUH4Luil"></path><path d="M53.2 7.5C52.87 7.24 52.43 7.07 52.34 6.58C52.67 6.85 53.11 7.02 53.2 7.5Z" id="b348iwGdA5"></path><path d="M0.38 36.27C0.1 33.29 1.62 32.15 3.4 30.2C6.43 26.87 9.99 24.07 13.62 21.36C13.97 21.1 14.27 20.98 14.63 20.7C17.75 18.18 20.59 15.01 23.84 12.39C25.55 11.01 26.96 9.98 29.31 9.22C31.04 8.66 32.82 8.65 34.2 10.01C32.92 14.43 28 17.41 24.13 21.23C22.29 23.04 20.67 25.01 19.09 26.9C16.76 29.7 15.06 32.03 12.04 34.03C10.49 35.05 9.51 35.48 7.57 36.27C5.99 36.92 2.84 38.17 0.81 36.93C0.29 36.81 0.72 36.54 0.67 36.14C0.51 35.6 0.48 37.13 0.38 36.27ZM29.45 9.35C27.93 9.85 26.57 10.49 25.57 11.46C26.73 10.64 28.12 10.02 29.45 9.35ZM29.02 10.27C28.57 10.27 27.76 10.6 28.01 10.8C28.25 10.54 28.84 10.59 29.02 10.27ZM33.48 11.07C32.71 12.56 31.05 13.94 30.46 15.16C31.47 13.89 33.05 12.43 33.48 11.07ZM30.75 11.73C30.77 11.9 30.26 12.22 30.6 12.25C30.58 12.08 31.19 11.86 30.75 11.73ZM31.9 11.99C31.67 12.35 31.36 12.64 31.18 13.05C30.89 13.29 32.27 12.25 31.9 11.99ZM21.82 14.63C21.72 14.93 20.93 15.3 21.25 15.55C21.42 15.34 22.19 14.49 21.82 14.63ZM21.82 16.48C22.32 15.94 23.23 15.51 23.12 14.89C22.4 15.82 21.57 16.64 20.82 17.53C21.39 17.46 21.48 16.85 21.82 16.48ZM24.7 15.55C24.59 16.15 23.46 16.52 23.7 17C23.89 16.48 24.93 16.03 24.7 15.55ZM21.1 15.69C19.64 16.8 18.59 18.3 17.07 19.38C18.46 18.71 19.84 16.9 21.1 15.69ZM26 16.08C25.92 16.46 25.08 16.82 25.42 17.14C25.46 16.73 26.29 16.36 26 16.08ZM6.71 27.56C7.11 27.2 8.47 26.34 8.01 26.24C5.97 28.16 3.36 30.25 2.11 32.44C3.39 30.78 5.18 28.96 6.71 27.56ZM7.29 27.69C6.6 28.6 5.08 29.45 4.84 30.33C5.48 29.38 7.12 28.64 7.29 27.69ZM8.01 28.48C7.77 28.87 6.63 29.72 6.86 29.67C7.16 29.29 8.3 28.98 8.01 28.48ZM10.45 29.01C10.43 29.31 9.59 29.52 10.02 29.8C10.04 29.5 10.89 29.29 10.45 29.01ZM16.5 29.28C14.52 31.82 11.88 33.75 8.87 35.35C12.07 34.01 14.98 31.71 16.5 29.28ZM11.32 33.5C12.65 32.39 14.19 31.47 15.2 30.07C14.33 30.56 13.74 31.5 12.9 32.18C12.35 32.62 11.39 32.86 11.32 33.5ZM1.1 35.48C1.06 35.78 1.13 35.97 1.39 36C1.37 35.76 1.29 35.56 1.1 35.48ZM4.26 36.93C3.03 36.77 3.65 37.33 4.26 36.93C4.26 36.93 4.26 36.93 4.26 36.93Z" id="aRF47dI8h"></path><path d="M55.36 11.2C55.34 10.96 55.54 10.92 55.5 10.67C55.87 11.08 55.97 11.74 56.51 11.99C56.22 12.2 55.31 11.87 54.93 11.73C54.82 11.37 55.21 11.46 55.22 11.2C55.43 11.31 55.67 11.4 55.65 11.73C55.95 11.69 55.68 11.1 55.36 11.2Z" id="a1U9F70fLR"></path><path d="M58.38 16.21C58.27 16.1 58.23 15.92 58.24 15.69C58.93 15.86 58.26 17.92 58.38 16.21Z" id="fdiWWDDMX"></path><path d="M52.91 17.8C53.23 17.77 53.37 17.91 53.34 18.19C53.03 18.22 52.89 18.08 52.91 17.8Z" id="bWUwh3MN5"></path><path d="M34.06 19.25C33.77 19.16 33.67 18.9 33.63 18.59C33.91 18.68 34.01 18.94 34.06 19.25Z" id="f1caPpfPNz"></path><path d="M56.22 20.83C55.75 20.71 55.54 20.35 55.79 19.91C56.55 19.8 56.67 20.55 56.22 20.83ZM55.94 20.3C55.84 20.61 56.5 20.59 56.37 20.3C56.32 20.2 55.99 20.14 55.94 20.3Z" id="afkDOLYVI"></path><path d="M56.37 20.3C56.5 20.59 55.84 20.61 55.94 20.3C55.99 20.14 56.32 20.2 56.37 20.3Z" id="bb7EzlQuh"></path><path d="M61.12 22.42C61.14 22.4 60.82 20.92 60.54 20.7C60.71 20.09 61.52 22.14 61.12 22.42Z" id="a2CVWUljJg"></path><path d="M51.33 21.49C51.07 21.47 51.03 21.65 50.75 21.62C50.56 21.45 50.48 20.7 50.9 20.7C51.41 20.62 51.34 21.09 51.33 21.49ZM51.04 21.36C51.05 21.19 51.23 21.18 51.19 20.96C51.16 20.96 51.01 20.96 50.75 20.96L50.75 21.36C50.93 21.36 51.02 21.36 51.04 21.36Z" id="kUoFSI2Lt"></path><path d="M40.82 21.36C40.65 21.3 40.53 21.19 40.53 20.96C40.71 21.02 40.83 21.13 40.82 21.36Z" id="aDQ6thQPr"></path><path d="M51.19 20.96C51.23 21.18 51.05 21.19 51.04 21.36C51.02 21.36 50.93 21.36 50.75 21.36L50.75 20.96C51.01 20.96 51.16 20.96 51.19 20.96Z" id="e2eSLJDfDA"></path><path d="M54.64 22.15C54.97 22.49 54.78 23.15 54.06 22.94C54.05 22.45 53.9 22.57 54.06 22.15C54.06 22.15 54.58 22.15 54.64 22.15ZM54.35 22.28C54.15 22.47 54.14 22.79 54.64 22.68C54.65 22.45 54.53 22.34 54.35 22.28Z" id="jOxsc7Uru"></path><path d="M54.64 22.68C54.14 22.79 54.15 22.47 54.35 22.28C54.53 22.34 54.65 22.45 54.64 22.68Z" id="e5qodTjdI1"></path><path d="M62.41 26.64C62 27.01 61.31 26.51 60.83 26.51C61.22 26.16 61.79 26.77 62.41 26.64Z" id="d4WsnPTyjj"></path><path d="M61.69 27.69C61.24 27.84 59.94 27.63 59.68 27.16C60.26 27.42 61.02 27.52 61.69 27.69Z" id="b1GmlodwpS"></path><path d="M30.03 28.88C29.67 28.67 30.28 28.25 30.32 27.96C30.68 28.17 30.06 28.59 30.03 28.88Z" id="bVocWd1b1"></path><path d="M53.63 29.14C53.75 28.99 53.82 28.79 53.78 28.48C54.01 28.46 54.07 29.35 53.63 29.14Z" id="a6Pl9yCEdD"></path><path d="M10.02 29.8C9.59 29.52 10.43 29.31 10.45 29.01C10.89 29.29 10.04 29.5 10.02 29.8Z" id="bJyVCzcct"></path><path d="M52.05 34.68C51.71 33.84 52.25 32.67 52.05 31.52C52.41 31.8 52.1 33.86 52.05 34.68Z" id="ayzFwgD1i"></path><path d="M50.75 32.84C50.7 33.09 50.57 32.75 50.61 32.57C50.66 32.32 50.79 32.66 50.75 32.84Z" id="d1oCgHqtA"></path><path d="M51.62 33.23C51.45 33.66 51.45 32.88 51.47 32.71C51.64 32.28 51.64 33.06 51.62 33.23Z" id="a3CniCswZ1"></path><path d="M25.85 34.29C25.69 34.72 25.69 33.94 25.71 33.76C25.88 33.33 25.87 34.12 25.85 34.29Z" id="e12TVQ7W88"></path><path d="M1.39 36C1.13 35.97 1.06 35.78 1.1 35.48C1.29 35.56 1.37 35.76 1.39 36Z" id="ch8i41zlP"></path><path d="M4.26 36.93C3.65 37.33 3.03 36.77 4.26 36.93C4.26 36.93 4.26 36.93 4.26 36.93Z" id="i1DfFPn1j7"></path><path d="M33.77 43.26C33.61 43.69 33.61 42.91 33.63 42.73C33.79 42.31 33.79 43.09 33.77 43.26Z" id="awxo4Ys64"></path><path d="M34.35 44.19C34.08 44.51 34.25 43.32 34.2 43C34.47 42.68 34.3 43.87 34.35 44.19Z" id="a2FugOHN3"></path><path d="M34.06 45.64C33.77 45.2 33.75 44.51 33.77 43.79C33.97 43.79 33.99 45.08 34.06 45.64Z" id="aINyVnR7z"></path><path d="M32.62 44.85C32.07 44.95 32.44 44.22 32.33 43.92C32.59 44.08 32.44 44.61 32.62 44.85Z" id="a1fKGpcqsL"></path><path d="M34.49 45.64C34.25 46.02 34.38 44.96 34.35 44.71C34.59 44.33 34.46 45.39 34.49 45.64Z" id="cmv9uFZ3p"></path><path d="M50.18 46.96C49.92 47.31 50.07 46.18 50.03 45.9C50.29 45.55 50.14 46.67 50.18 46.96Z" id="a3dzGkfccj"></path><path d="M34.63 46.56C34.47 46.99 34.47 46.21 34.49 46.03C34.66 45.61 34.65 46.39 34.63 46.56Z" id="aVpiccxqq"></path><path d="M24.13 46.96C23.75 46.77 24.23 46.27 24.27 46.03C24.64 46.21 24.06 46.62 24.13 46.96Z" id="cdQ1qOCy9"></path><path d="M49.31 46.43L49.31 46.69L49.03 46.69L49.03 46.43L49.31 46.43Z" id="c6UsUd8EJ"></path><path d="M50.75 47.75C50.49 48.07 50.66 46.88 50.61 46.56C50.88 46.24 50.71 47.43 50.75 47.75Z" id="a1pLGzc2xQ"></path><path d="M25.14 49.46C24.97 49.89 24.97 49.11 24.99 48.94C25.16 48.51 25.15 49.29 25.14 49.46Z" id="dTz7ti9NC"></path><path d="M51.04 49.2C51.02 49.53 50.55 49.24 50.47 49.2C50.56 48.8 50.77 49.33 51.04 49.2Z" id="dJZfCwSDd"></path><path d="M27.58 51.05C27.31 51.37 27.48 50.18 27.44 49.86C27.7 49.54 27.53 50.73 27.58 51.05Z" id="c2sQS3AIAk"></path><path d="M40.82 51.44C40.91 51.12 41.37 51.15 41.69 51.05C41.6 51.37 41.14 51.34 40.82 51.44Z" id="b7f5Mk99c"></path><path d="M53.49 51.31C54.16 51.81 53.89 53.16 53.63 51.71C53.41 52.17 53.16 51.68 53.06 51.31C53 51.53 53.8 51.54 53.49 51.31Z" id="a2NAyzhxx"></path><path d="M32.76 52.5C32.56 52.25 32.43 51.92 32.33 51.58C32.79 51.6 32.72 52.1 32.76 52.5Z" id="i1ocJdfHC"></path><path d="M50.18 52.23C50.24 51.91 50.74 52.23 50.61 52.5C50.42 52.45 50.38 52.27 50.18 52.23Z" id="iefvO9zym"></path><path d="M48.16 53.16C47.99 53.1 47.87 52.99 47.88 52.76C48.05 52.82 48.17 52.93 48.16 53.16Z" id="b2AV3oTRv0"></path><path d="M20.1 53.69C19.69 53.51 20.21 53.1 20.24 52.89C20.66 53.08 19.99 53.35 20.1 53.69Z" id="alXOik9Ab"></path><path d="M20.67 53.82C20.31 53.8 20.63 53.37 20.67 53.29C21.1 53.38 20.53 53.57 20.67 53.82Z" id="a1WjUWEL9J"></path><path d="M52.91 53.82C52.6 54.22 51.99 53.67 52.91 53.82C52.91 53.82 52.91 53.82 52.91 53.82Z" id="azjGmxEXw"></path><path d="M24.7 55.8C24.15 55.91 23.54 55.86 23.12 55.53C23.11 55.04 23.27 54.7 23.41 54.35C23.87 54.32 24.47 54.04 24.85 54.35C24.95 54.97 24.69 55.25 24.7 55.8Z" id="dgSaTQcuo"></path><path d="M47.59 54.21C47.61 54.5 47.08 54.27 46.87 54.35C46.84 54.06 47.38 54.29 47.59 54.21Z" id="czJRmR4vb"></path><path d="M53.49 55C53.37 54.46 53.71 54.33 54.21 54.35C54.01 54.6 54.13 55.15 53.49 55Z" id="a1GyMIIYAC"></path><path d="M52.91 55.4C52.43 55.25 52.69 55.14 52.05 55.27C52.07 55.42 52.31 55.38 52.48 55.4C52.42 55.69 51.72 55.5 51.62 55.4C51.5 55.03 51.82 55.06 51.76 54.74C52.32 54.77 52.82 54.75 53.2 54.61C53.27 55.02 53 55.12 52.91 55.4Z" id="dAOWX9xy2"></path><path d="M51.47 54.74C51.55 55.85 50.02 56.2 49.17 55.66C49.22 55.35 49.4 55.17 49.31 54.74C49.8 54.99 50.97 54.9 51.47 54.74ZM50.75 55.4C50.5 55.56 49.92 55.42 49.75 55.66C50.16 55.84 50.57 55.77 50.75 55.4Z" id="jl47NXiXm"></path><path d="M47.3 55.27C47.15 55.57 46.39 55.32 46 55.4C46.16 55.1 46.91 55.35 47.3 55.27Z" id="a88xSqrH1"></path><path d="M49.75 55.66C49.92 55.42 50.5 55.56 50.75 55.4C50.57 55.77 50.16 55.84 49.75 55.66Z" id="a1i4Z6K0xT"></path><path d="M24.56 56.06C24.56 56.37 24.31 56.45 24.42 56.85C23.57 56.88 22.87 56.77 22.26 56.59C22.38 56.26 22.89 56.29 22.83 55.8C23.49 55.81 23.76 56.18 24.56 56.06ZM23.98 56.46C23.8 56.28 23.28 56.25 23.26 56.59C23.47 56.52 24.01 56.74 23.98 56.46Z" id="b5hbgUHadT"></path><path d="M23.26 56.59C23.28 56.25 23.8 56.28 23.98 56.46C24.01 56.74 23.47 56.52 23.26 56.59Z" id="e10ILs7Pka"></path><path d="M25.28 59.1C24.9 58.74 24.83 58.1 24.85 57.38C25.04 57.39 25.11 58.63 25.28 59.1Z" id="hYILk7SS"></path><path d="M25.57 57.78C25.51 58.03 25.38 57.69 25.42 57.51C25.48 57.26 25.61 57.6 25.57 57.78Z" id="e1svHL3mlO"></path><path d="M33.63 62C33.78 60.63 33.21 59.92 32.91 58.96C33.41 58.59 34.33 58.5 35.07 58.7C36.11 60.08 36.38 62.03 33.63 62ZM34.92 60.81C34.67 60.8 34.55 60.91 34.49 61.08C34.74 61.08 34.86 60.97 34.92 60.81ZM35.35 60.94C35.08 61.39 34.42 61.5 33.91 61.74C34.7 61.84 35.53 61.28 35.35 60.94Z" id="aVEVBFHcd"></path><path d="M34.49 61.08C34.55 60.91 34.67 60.8 34.92 60.81C34.86 60.97 34.74 61.08 34.49 61.08Z" id="a29l4OHRiL"></path><path d="M30.46 61.34C30.48 61.62 29.95 61.4 29.74 61.47C29.72 61.19 30.25 61.41 30.46 61.34Z" id="eBhMJefBA"></path><path d="M32.91 61.6C32.29 62.01 31.68 61.44 32.91 61.6C32.91 61.6 32.91 61.6 32.91 61.6Z" id="a2mj9E3udq"></path><path d="M33.19 62.26C33.08 62.96 31.71 62.61 31.32 62.39C31.66 62.09 32.62 62.35 33.19 62.26Z" id="dgdw7efd"></path><path d="M39.96 2.23C37.67 2.02 35.77 3.04 34.49 4.07C35.56 3.47 37.32 2.36 39.53 2.36C39.13 3.49 37.46 3.46 36.36 3.94C37.04 4.21 37.8 3.42 38.66 3.41C38.47 3.94 37.99 4.21 38.09 5C40.17 5.77 42.3 6.17 43.99 7.24C45.47 8.17 46.31 9.57 47.3 10.94C46.48 10.53 46.03 9.9 45 9.88C41.96 9.83 41.5 14.45 44.71 14.76C46.88 14.98 48.12 13.16 47.3 11.2C47.55 11.94 49.04 13 48.31 13.84C47.2 15.1 42.99 15.74 41.4 16.35C40.87 16.34 40.75 15.97 40.39 15.82C40.05 15.97 40.76 16.26 40.97 16.35C40.56 16.91 39.89 16.33 39.53 16.08C39.18 16.24 39.98 16.45 40.1 16.61C39.97 16.84 39.6 16.85 39.38 17C37.58 16.11 36.02 14.99 33.77 14.5C35.57 15.27 37.45 15.96 38.95 17C38.91 17.28 38.42 17.13 38.38 17.4C36.93 16.62 35.45 15.86 33.77 15.29C34.32 15.83 35.2 16.01 35.93 16.35C36.63 16.67 37.34 17.02 37.94 17.4C37.5 17.92 36.6 18.01 36.36 18.72C36.54 19.44 36.99 19.91 37.66 20.17C36.52 20.76 35.34 19.31 33.63 19.91C33.6 19.75 33.36 19.8 33.19 19.78C32.86 19.25 32.63 18.62 32.33 18.06C32.64 17.61 32.86 16.48 33.34 16.61C33.13 15.96 33.76 14.32 34.06 13.31C34.59 13.39 34.96 13.62 35.5 13.71C35.22 13.35 34.46 13.43 34.2 13.05C34.22 12.56 34.41 12.71 34.78 12.78C34.82 12.44 34.22 12.68 34.35 12.25C34.6 11.92 34.53 12.11 35.07 12.12C34.81 11.92 34.3 11.95 34.49 11.33C34.84 11.28 34.8 11.57 35.21 11.46C35.12 11.2 34.54 11.38 34.49 11.07C34.23 10.55 34.95 10.71 34.92 10.94C34.96 10.67 34.57 10.79 34.49 10.67C34.27 10.33 34.5 9.71 34.2 9.48C33.51 9.2 32.9 8.83 32.04 8.69C32.23 7.46 32.9 6.66 33.48 5.79C32.87 6.15 32.07 7.49 31.9 8.69C31.73 8.45 30.96 8.76 31.18 8.16C31.32 8.17 31.29 8.33 31.32 8.43C31.68 8.39 31.14 7.34 31.47 8.03C31.98 6.92 32.56 5.87 33.34 5C33.25 4.68 33.04 5.32 32.91 5.39C34.27 3.43 37.08 1.66 41.54 2.09C41.08 2.5 40.49 2.27 39.96 2.23ZM37.37 4.6C37.35 4.85 36.89 4.69 36.94 5C37.19 5.03 37.79 4.75 37.37 4.6ZM34.06 7.24C33.9 7.67 33.27 8.36 33.48 8.69C33.64 8.26 34.2 7.51 34.06 7.24ZM34.06 13.84C35.02 14.01 36.07 14.8 36.79 14.76C35.94 14.49 34.95 13.64 34.06 13.84ZM33.77 15.03C34.92 15.16 35.9 16.15 36.79 16.08C35.85 15.76 34.78 14.85 33.77 15.03ZM33.63 16.08C34.43 16.22 34.98 16.6 35.64 16.87C35.43 16.34 33.69 15.88 33.63 16.08ZM33.48 19.64C33.2 19.08 32.47 16.61 32.76 18.59C33.13 18.83 33.12 19.4 33.48 19.64ZM33.63 18.59C33.67 18.9 33.77 19.16 34.06 19.25C34.01 18.94 33.91 18.68 33.63 18.59Z" id="a390NrJcAz"></path><path d="M52.77 30.73C52.76 33.95 52.52 36.98 51.62 39.44C51.42 39.96 50.97 40.51 50.9 41.02C50.78 41.84 51.25 42.73 51.33 43.66C51.46 45.09 51.32 46.53 51.19 48.14C52.79 49.69 55.6 51.45 54.21 54.87C53.94 55.46 52.92 55.36 52.63 55.93C51.47 55.79 51.03 55.87 50.32 56.32C49.72 56.31 49.34 56.08 49.03 55.8C46.15 57.14 43.11 55.41 42.69 52.89C40.95 53.4 39.33 54.03 36.79 53.82C37.27 55.99 39 58.92 37.51 60.94C36.86 61.84 35.71 61.86 34.78 62.66C34.32 62.84 34.07 62.47 33.63 62.53C33.23 62.57 33.06 62.91 32.62 62.92C31.79 62.95 30.89 62.42 30.03 62.92C28.98 62.45 27.62 62.38 26.72 61.73C26.38 61.49 26.09 60.98 25.71 60.55C24.92 59.67 24.27 58.97 24.41 57.12C22.95 57.27 22.28 56.7 20.82 56.85C18.03 55.44 19.75 51.42 21.1 49.73C21.08 46.22 23.85 43.06 24.41 39.7C24.59 38.64 24.56 37.53 24.7 36.53C25.41 31.69 26.76 27.64 29.74 24.39C30.83 23.21 32.98 21.84 33.05 20.83C33.11 19.95 32.14 19.35 32.19 18.59C31.35 18.7 30.98 19.55 30.46 20.04C27.19 23.16 23.16 26.54 18.95 29.01C18.28 29.4 17.41 29.73 16.79 30.2C15.76 30.97 15.08 32.18 14.05 33.1C11.96 34.98 7.57 37.54 3.54 37.72C2.35 37.77 0.96 37.7 0.38 37.06C-0.22 36.41 -0.02 34.48 0.38 33.5C0.84 32.36 2.09 31.26 3.11 30.07C5.96 26.74 9.65 24.1 13.19 21.49C16.87 18.78 19.64 15.65 23.12 12.78C25.26 11.02 27.31 9.12 30.75 8.56C31.35 7.09 32.03 5.52 33.19 4.34C34.47 3.05 36.44 1.81 38.95 1.7C40.23 1.64 41.76 1.95 43.27 2.23C47.18 2.94 51.01 4.21 52.91 6.45C56.16 6.98 57.55 9.82 60.25 11.86C61.29 12.63 62.64 13.34 63.85 13.97C65.14 14.64 66.58 15.09 67.59 15.82C70.09 17.6 70.26 22.72 68.89 25.32C68.55 25.96 67.63 27.14 66.73 27.96C65.65 28.94 63.98 29.92 62.27 30.2C59.31 30.69 56.95 29.54 54.64 28.75C54.31 29.68 53.55 30.21 52.77 30.73ZM33.34 5C32.56 5.87 31.98 6.92 31.47 8.03C31.14 7.34 31.68 8.39 31.32 8.43C31.29 8.33 31.32 8.17 31.18 8.16C30.96 8.76 31.73 8.45 31.9 8.69C32.07 7.49 32.87 6.15 33.48 5.79C32.9 6.66 32.24 7.46 32.04 8.69C32.9 8.83 33.51 9.2 34.2 9.48C34.5 9.71 34.27 10.33 34.49 10.67C34.57 10.79 34.96 10.67 34.92 10.94C34.96 10.71 34.23 10.55 34.49 11.07C34.54 11.38 35.12 11.2 35.21 11.46C34.8 11.57 34.84 11.28 34.49 11.33C34.3 11.95 34.81 11.92 35.07 12.12C34.53 12.11 34.6 11.93 34.35 12.25C34.22 12.68 34.82 12.44 34.78 12.78C34.41 12.71 34.22 12.56 34.2 13.05C34.46 13.43 35.22 13.35 35.5 13.71C34.96 13.63 34.59 13.39 34.06 13.31C33.76 14.32 33.13 15.96 33.34 16.61C32.86 16.48 32.64 17.61 32.33 18.06C32.63 18.62 32.86 19.25 33.19 19.78C33.36 19.8 33.6 19.75 33.63 19.91C35.34 19.31 36.52 20.76 37.66 20.17C36.99 19.91 36.54 19.44 36.36 18.72C36.6 18.01 37.5 17.92 37.94 17.4C37.34 17.02 36.63 16.67 35.93 16.35C35.2 16.01 34.32 15.83 33.77 15.29C35.45 15.86 36.93 16.62 38.38 17.4C38.42 17.13 38.91 17.28 38.95 17.01C37.45 15.96 35.57 15.27 33.77 14.5C36.02 14.99 37.58 16.11 39.38 17.01C39.6 16.85 39.97 16.84 40.1 16.61C39.98 16.45 39.18 16.24 39.53 16.08C39.89 16.33 40.56 16.91 40.97 16.35C40.76 16.26 40.05 15.97 40.39 15.82C40.75 15.97 40.87 16.34 41.4 16.35C42.99 15.74 47.2 15.1 48.31 13.84C49.04 13 47.55 11.95 47.3 11.2C48.12 13.16 46.88 14.98 44.71 14.76C41.5 14.45 41.96 9.83 45 9.88C46.03 9.9 46.48 10.53 47.3 10.94C46.32 9.57 45.47 8.17 43.99 7.24C42.3 6.17 40.17 5.77 38.09 5C38 4.21 38.47 3.94 38.66 3.41C37.8 3.42 37.04 4.21 36.36 3.94C37.46 3.46 39.13 3.49 39.53 2.36C37.32 2.36 35.56 3.47 34.49 4.07C35.77 3.04 37.67 2.02 39.96 2.23C40.49 2.27 41.08 2.5 41.54 2.1C37.09 1.66 34.27 3.43 32.91 5.39C33.04 5.32 33.25 4.68 33.34 5ZM53.06 11.07C51.36 9.58 51.11 7.49 49.89 6.05C49.06 5.08 46.9 3.4 45.57 3.02C44.9 2.83 44.12 2.97 43.13 2.75C41.94 2.5 40.56 2.3 39.38 2.89C39.02 3.56 38.4 4.01 38.38 5C40.39 5.42 42.74 6.04 44.42 7.24C45.82 8.24 46.37 9.16 47.3 10.67C47.96 11.75 48.84 12.51 48.6 13.97C46.48 15.41 42.72 16.18 40.68 16.87C40.81 16.91 41.31 17.23 40.97 17.27C40.72 16.69 39.97 17.01 39.53 17.27C39.76 17.17 40.15 17.53 39.82 17.53C39.41 17.26 39.23 17.3 38.66 17.4C38.46 17.86 39.54 17.82 39.1 18.06C38.79 17.94 38.67 17.66 38.23 17.66C37.66 18.02 36.92 18.23 36.65 18.85C36.86 19.54 37.65 19.69 37.94 20.3C37.83 20.33 37.78 20.41 37.8 20.57C35.87 20.59 35.05 19.79 33.19 20.04C33.32 20.37 33.38 20.75 33.34 21.23C32.49 22.74 30.22 23.65 29.74 25.05C29.74 24.98 29.86 24.9 29.88 25.05C29.69 25.38 29.03 25.13 29.31 25.45C29.8 25.51 28.43 26.52 28.45 26.51C28.47 26.48 28.59 26.64 28.45 26.77C28.28 26.92 28.4 26.72 28.3 26.9C28.32 26.87 27.95 28.41 27.44 27.96C27.68 28.51 27.15 28.87 27.15 28.88C27.17 29.32 27.22 28.84 27.01 29.14C26.89 29.31 27.13 29.36 26.86 29.41C27.25 29.69 26.77 30.28 26.57 30.46C26.54 30.36 26.57 30.2 26.43 30.2C26.68 31.23 26.07 32.47 25.85 33.5C25.7 32.87 26.35 31.73 26 31.78C24.08 36.85 24.54 44.78 24.99 50.52C25.07 50.33 24.82 49.84 25.13 49.86C25.27 50.52 24.69 51.21 25.13 51.71C25.21 51.52 24.97 51.02 25.28 51.05C25.22 51.89 25.66 54.37 25.13 52.63C25.42 54.23 24.83 55.54 24.7 56.46C24.4 58.69 25.25 59.57 26.14 60.55C26.55 60.99 26.81 61.47 27.01 61.6C27.82 62.16 30.17 62.93 30.89 62.26C27.88 62.56 27.06 60.85 25.71 59.62C25.87 58.27 27.17 58.5 28.3 58.04C29.72 57.47 30.94 56.22 32.33 55.8C33.93 56.22 36.51 56.45 37.51 56.98C36.62 54.86 35.14 52.56 35.21 49.99C35.05 50.71 35.5 50.87 35.5 51.44C35.79 51.45 35.15 49 35.07 48.94C34.98 49.21 35.24 49.8 34.92 49.86C35.21 49.62 34.63 48.96 34.78 48.54C34.81 48.46 35.06 48.83 35.07 48.41C35.07 47.06 34.65 44.36 34.49 42.87C34.46 42.58 34.18 41.6 34.2 41.55C33.88 42.26 34.62 42.42 34.06 42.47C33.93 41.81 34.19 41.07 34.2 40.76C34.35 37.9 32.86 35.77 32.04 33.63C35.78 38.3 34.07 47.96 36.65 53.69C37.77 53.66 38.74 53.49 39.67 53.29C39.56 53.26 39.39 53.29 39.38 53.16C40.5 52.99 41.6 52.81 42.26 52.23C41.72 51.91 40.83 53 40.25 52.63C40.81 52.4 41.44 52.23 41.97 51.97C41.58 49.17 43.55 46.87 45 45.77C44.2 46.87 42.4 49.13 42.12 50.65C41.9 51.88 42.92 52.99 43.41 53.82C43.86 54.57 44.36 55.41 45.14 55.67C45.06 55.64 45.45 55.53 45.57 55.53C46.56 55.59 47.17 55.75 48.02 55.8C46.99 55.85 46.75 55.85 45.72 55.8C45.28 55.49 45.28 55.81 45.72 55.93C46.98 55.91 48.98 56.34 49.03 54.87C47.17 55.54 43.7 54.71 43.41 53.42C43.06 51.85 44.87 51.08 46.15 50.39C46.9 49.98 48.03 49.13 48.6 49.07C49.99 48.92 51.31 50.22 52.63 49.86C51.98 49.95 51.59 48.36 50.75 48.67C51.05 48.72 51.76 49.06 51.47 49.2C50.93 48.95 50.53 48.57 50.18 48.14C49.83 48.06 49.13 48.31 49.03 48.01C49.54 47.6 50.6 48.37 51.04 48.01C50.95 46.11 51.13 43.54 50.75 41.55C49.35 42.6 48.34 44.7 46.58 44.98C47.49 44.55 47.83 43.57 48.45 43.26C48.58 43.2 49.01 43.54 48.74 43.13C48.32 43.24 49.32 42.33 49.46 42.47C49.5 42.05 50.33 40.71 50.75 40.62C50.36 40.28 51.03 39.7 51.04 39.7C51.02 39.7 51.12 40.06 51.19 39.96C51.32 39.78 50.94 39.62 51.04 39.44C51.25 39.49 51.29 39.59 51.47 39.44C51.92 36.69 52.77 34.03 52.34 30.73C50.49 31.67 49.2 30.07 48.74 28.88C46.25 29.02 44.35 29.12 43.13 27.82C42.37 27.03 42.34 25.89 41.4 25.19C41.51 25.16 41.68 25.18 41.69 25.05C40.81 23.7 39.68 22.59 38.52 21.49C37.98 21.28 37.34 21.05 37.66 20.7C37.93 20.4 39.33 21.69 39.24 21.62C40.71 22.81 41.4 23.65 42.26 25.32C42.66 26.07 43.18 27.38 43.7 27.82C45.04 28.97 47.72 28.37 49.46 28.35C51.37 27.53 53.78 26.79 55.22 25.71C56.65 24.63 58.08 22.79 57.95 20.96C57.93 21.12 57.98 21.34 57.81 21.36C57.89 20.62 57.64 20.19 57.52 19.64C55.93 19.2 53.96 17.66 54.07 16.08C55.12 15.27 56.66 14.26 58.67 14.76C59.2 15.81 59.24 17.66 58.81 18.85C58.53 19.12 58.08 19.24 57.95 19.64C59.08 23.03 56.83 25.43 54.64 26.64C55.63 26.92 56.39 28.11 57.52 27.82C57.41 27.79 57.24 27.82 57.23 27.69C57.71 27.49 58.14 27.75 58.38 27.56C57.67 27.4 58.91 27.13 59.25 26.9C59.97 26.4 60.58 25.42 61.12 24.92C61.06 24.97 61.79 24.89 61.26 24.66C61.23 24.76 61.26 24.92 61.12 24.92C61.11 24.45 61.32 24.09 61.55 24.53C61.11 24.09 61.75 23.7 61.69 24.13C61.79 23.42 61.4 22.86 61.84 21.89C61.83 22.37 61.85 22.81 61.84 23.07C61.77 24.9 62.28 21.71 61.69 21.23C61.67 21.42 61.74 21.71 61.55 21.75C61.35 21.29 61.95 20.91 61.55 20.7C61.53 20.85 61.57 21.07 61.41 21.1C61.4 20.57 61.09 20.33 60.97 19.91C61.36 19.95 61.23 20.46 61.55 20.57C61.38 19.52 60.36 18.45 60.4 17.66C60.39 17.77 60.37 17.92 60.25 17.93C60.07 17.6 60.68 17.38 60.25 17.27C60.22 17.37 60.25 17.53 60.11 17.53C60.06 16.74 59.28 15.92 59.53 15.29C59.57 15.39 59.54 15.55 59.68 15.55C59.3 15.11 59.51 15.17 59.25 14.89C59.19 14.83 58.74 14.73 59.25 14.63C59 14.4 58.68 14.82 58.67 14.23C58.83 14.22 58.89 14.43 58.96 14.23C58.67 14 58.68 14.33 58.38 14.1C59.01 13.83 57.45 12.98 57.38 13.05C57.44 12.99 57.79 13.33 57.52 13.31C57.14 13.22 57.23 12.69 56.94 12.52C55.52 12.16 54 11.89 53.06 11.07ZM36.65 54.61C36.26 53.69 36.14 52.53 35.64 51.71C35.87 52.78 36.13 53.81 36.65 54.61ZM54.5 26.9C54.94 26.8 54.77 27.26 55.22 27.17C55.9 27.89 54.79 26.44 54.5 26.9ZM55.94 27.69C56.98 28.37 55.81 27.36 55.94 27.69C55.94 27.69 55.94 27.69 55.94 27.69ZM59.39 26.9C59.2 27.09 58.35 27.35 58.67 27.56C58.82 27.36 59.77 26.74 59.39 26.9ZM60.4 26.11C61.89 24.45 60.15 26 60.4 26.11C60.4 26.11 60.4 26.11 60.4 26.11ZM60.25 17.01C60.11 16.65 59.93 15.64 59.68 15.82C59.92 16.09 60.02 17.17 60.25 17.01ZM46.87 3.41C47.21 3.71 48.81 4.13 48.74 3.94C48.16 3.81 47.38 3.17 46.87 3.41ZM51.76 8.3C51.85 7.72 53.3 7.84 53.78 8.03C53.32 7.17 52.27 6.16 51.62 5.92C51.77 5.95 51.96 6.14 51.76 6.19C51.2 5.6 50.15 5.47 49.75 4.73C49.96 4.77 50.35 5.3 50.47 5C49.91 4.68 48.1 3.86 47.88 4.07C49.46 4.91 50.23 6.49 51.47 7.64C50.87 7.3 51.5 8.23 51.76 8.3ZM50.9 5.53C51.46 5.87 51.19 5.57 50.9 5.39C50.65 5.24 50.38 5.21 50.9 5.53ZM69.03 18.72C68.32 16.41 67.09 15.7 65 14.89C64.54 14.72 64.12 14.67 63.71 14.5C62.33 13.94 62.4 13.28 61.26 13.18C61.05 12.56 60.7 12.71 60.25 12.39C60.21 12.36 60.47 12.06 60.25 12.12C59.68 12.3 59.38 11.36 58.96 10.94C58.42 10.4 57.51 9.86 56.8 9.22C55.55 8.1 54.95 7.1 53.34 6.71C54.72 8.27 55.59 10.28 56.8 11.99C59.48 13.67 64.39 15.06 66.73 17.8C69.9 21.5 66.7 27.47 62.99 29.01C61.51 29.62 59.5 29.54 57.81 29.54C61.23 30.64 64.16 29.72 66.45 27.69C69.21 25.23 70.04 21.97 69.03 18.72ZM54.06 10.8C54.37 10.88 54.48 11.13 54.93 11.07C54.74 10.54 54.56 10 54.06 9.75C54.06 9.75 54.06 10.7 54.06 10.8ZM7.58 36.27C9.51 35.48 10.49 35.05 12.04 34.03C15.06 32.04 16.76 29.7 19.09 26.9C20.67 25.01 22.29 23.04 24.13 21.23C28 17.41 32.92 14.43 34.2 10.01C32.82 8.66 31.04 8.67 29.31 9.22C26.96 9.98 25.55 11.01 23.84 12.39C20.59 15.01 17.75 18.18 14.63 20.7C14.27 20.99 13.97 21.1 13.62 21.36C9.99 24.07 6.43 26.88 3.4 30.2C1.62 32.15 0.1 33.3 0.38 36.27C0.48 37.13 0.51 35.6 0.67 36.14C0.72 36.54 0.29 36.81 0.81 36.93C2.84 38.17 5.99 36.92 7.58 36.27ZM53.2 10.8C53.7 11.14 54.27 11.41 54.78 11.73C54.56 11.22 53.44 10.85 53.2 10.8ZM54.93 11.73C55.31 11.87 56.22 12.2 56.51 11.99C55.97 11.74 55.87 11.08 55.5 10.67C55.54 10.92 55.34 10.96 55.36 11.2C55.68 11.1 55.95 11.69 55.65 11.73C55.67 11.4 55.43 11.32 55.22 11.2C55.21 11.46 54.82 11.37 54.93 11.73ZM32.19 17.67C33.05 16.59 33.07 15.24 33.48 13.84C33.77 12.86 34.66 12.02 34.2 10.94C32.23 15.11 28.24 17.83 24.85 20.83C21.86 23.47 19.57 26.75 17.22 29.67C19.27 28.61 21.06 27.3 22.98 26.11C24.02 24.92 25.7 23.93 26.86 22.94C27.23 22.63 27.79 22.2 27.72 21.76C27.36 22.43 26.33 23.2 25.85 23.34C26.9 22.46 27.93 21.53 29.02 20.57C30.05 19.66 31.35 18.71 32.19 17.67ZM62.13 23.6C62.21 23.79 62.68 23.62 62.7 23.87C62.37 23.91 62.15 23.85 61.98 23.74C61.66 25.68 60.27 26.66 58.96 27.69C59.71 27.93 60.59 28.05 61.26 28.35C60.03 28.51 59.02 27.37 58.1 28.09C58.95 28.31 60.01 28.36 60.54 28.88C59.47 28.81 58.21 27.79 57.38 28.35C58.17 28.46 58.77 28.75 59.39 29.01C57.36 28.76 55.5 27.66 54.21 27.17C54.42 27.19 54.34 27.49 54.35 27.69C55.54 27.71 55.79 28.59 56.51 28.35C56.05 28.87 57.88 28.37 58.38 29.28C63.63 30.02 67.14 26.18 67.74 22.42C68.14 19.9 66.9 17.91 64.86 16.48C64.07 16.48 63.47 15.97 63.42 15.69C62.86 15.69 62.21 15.21 61.55 14.9C60.82 14.55 60.03 14.31 59.53 13.84C59.87 13.73 60.15 14.3 60.25 13.97C59.47 13.68 58.36 12.98 57.81 12.92C59.24 13.75 59.89 15.04 60.54 17.01C61.3 19.3 62.33 20.81 62.13 23.6ZM57.52 19.38C58 19.4 58.28 18.52 58.53 18.19C58.47 18.27 58.65 18.49 58.67 18.46C59.13 17.39 58.68 16.31 58.53 15.03C56.76 14.75 55.05 15.6 54.21 16.61C55.04 17.78 55.92 18.91 57.52 19.38ZM53.34 30.07C54.13 29.48 54.39 28.28 54.06 27.03C52.64 27.4 51.64 28.15 50.18 28.49C50.25 29.35 51.11 30.18 51.76 30.07C51.43 29.94 52.69 29.86 52.48 30.2C51.99 30.09 51.66 30.4 52.34 30.33C52.66 30.23 52.9 30.06 53.34 30.07ZM56.08 28.88C55.55 28.67 54.91 28.11 54.5 28.35C55.22 28.62 55.9 28.91 56.66 29.15C56.8 28.7 56.27 28.96 56.08 28.88ZM51.76 30.6C50.6 30.38 50.12 29.55 49.75 28.62C49.85 28.98 49.07 28.52 49.17 28.88C49.48 29.15 49.89 29.14 50.03 29.81C49.55 29.45 49.89 30.16 50.18 29.81C49.74 30.48 51.25 31.21 51.76 30.6ZM26.72 30.07C27.13 29.3 26.36 29.72 26.72 30.07C26.72 30.07 26.72 30.07 26.72 30.07ZM24.7 49.2C24.63 46.46 24.57 43.69 24.13 41.28C22.9 44.51 21.39 48.19 20.67 51.44C21.63 50.34 23.24 49.84 24.7 49.2ZM49.17 54.61C49.24 53.09 48.64 52.2 47.59 51.71C47.11 51.72 46.36 52.15 46.15 51.97C46.52 51.39 47.38 51.72 48.02 51.58C48.4 51.49 48.65 51.22 49.03 51.18C49.52 51.12 49.99 51.34 50.47 51.31C51.26 51.27 51.83 50.61 52.48 50.92C52.42 51.21 51.69 50.9 51.76 51.31C53 51.67 53.62 52.6 53.49 54.21C53.98 54.22 54.11 53.91 54.35 53.69C54.42 52.35 53.88 51.57 53.49 50.65C52.06 49.99 50.22 49.69 48.45 49.33C46.78 50.61 44.1 50.97 43.56 53.29C44.04 53.91 44.65 54.4 45.57 54.61C45.68 54.29 46.16 54.4 46.44 54.61C46.26 54.57 45.55 54.63 46 54.74C47.01 54.39 48.28 54.86 49.17 54.61ZM22.69 55.53C22.82 55.21 23.02 54.96 22.98 54.48C22.7 54.12 21.88 54.25 21.68 53.82C22.8 54.17 23.51 54.2 24.99 54.08C24.78 52.6 24.81 50.9 24.56 49.46C22.83 50.35 20.24 51.13 19.95 52.9C19.95 52.65 20.26 52.05 20.38 52.37C19.96 52.8 19.8 53.61 19.52 53.82C19.93 54.98 21.29 55.28 22.69 55.53ZM51.04 52.76C50.85 52.59 50.56 51.87 50.03 51.58C49.57 51.29 48.33 51.42 48.16 51.84C49.14 52.26 49.32 53.42 49.46 54.61C50.21 54.47 50.73 54.47 51.47 54.61C51.9 53.58 51.5 53.07 51.19 52.63C51.22 52.68 51.12 52.83 51.04 52.76ZM50.61 51.58C51.11 51.9 51.57 52.29 51.76 53.03C51.88 53.48 51.43 54.21 52.05 54.48C52.07 54.52 53.35 53.74 53.2 54.35C53.67 52.81 52.4 51.05 50.61 51.58ZM23.12 55.53C23.54 55.86 24.15 55.91 24.7 55.8C24.69 55.25 24.95 54.97 24.85 54.35C24.47 54.04 23.87 54.33 23.41 54.35C23.26 54.7 23.11 55.04 23.12 55.53ZM54.21 54.35C53.71 54.33 53.37 54.46 53.49 55.01C54.13 55.15 54.01 54.6 54.21 54.35ZM21.54 56.72C22.08 56.52 22.34 56.06 22.69 55.67C21.19 55.68 20.29 55.13 19.52 54.48C19.36 55.11 20.05 54.97 19.95 55.53C20.54 55.25 20.59 56.04 21.1 56.19C20.75 56.69 20.68 55.58 20.38 56.06C20.79 56.26 21 56.64 21.54 56.72ZM51.62 55.4C51.72 55.51 52.42 55.7 52.48 55.4C52.31 55.38 52.07 55.42 52.05 55.27C52.69 55.14 52.43 55.25 52.91 55.4C53 55.13 53.27 55.03 53.2 54.61C52.82 54.75 52.32 54.77 51.76 54.74C51.82 55.06 51.5 55.03 51.62 55.4ZM51.47 54.74C50.97 54.9 49.8 54.99 49.31 54.74C49.4 55.17 49.22 55.36 49.17 55.67C50.02 56.21 51.55 55.85 51.47 54.74ZM24.41 56.85C24.31 56.45 24.56 56.37 24.56 56.06C23.76 56.18 23.49 55.81 22.83 55.8C22.89 56.29 22.38 56.27 22.26 56.59C22.87 56.77 23.57 56.88 24.41 56.85ZM31.04 62C31.59 61.06 31.2 59.62 30.6 58.97C30.21 58.88 29.46 59.13 29.31 58.83C31.09 58.75 32.97 58.56 35.07 58.44C35.47 58.38 36.21 57.8 36.36 58.31C35.88 58.35 35.45 58.44 35.21 58.7C35.78 59.19 36.08 59.93 36.07 60.94C37.66 60.71 38.09 59.19 37.94 58.31C37.64 56.54 35.31 56.74 33.34 56.33C31.83 56.01 31.39 56.48 30.03 57.25C28.76 57.97 27.93 58.54 26.43 58.7C26.36 59.03 26.16 59.24 26 59.49C26.48 60.51 27.72 60.82 28.3 61.74C29.15 61.54 30.17 61.91 30.89 61.87C30.32 62.31 28.72 61.63 28.88 61.87C29.35 62.16 30.42 62.24 31.04 62ZM33.63 62C36.38 62.03 36.11 60.08 35.07 58.7C34.33 58.5 33.41 58.6 32.91 58.97C33.21 59.92 33.78 60.63 33.63 62ZM33.48 62C33.55 60.67 32.96 59.93 32.62 58.97C32.46 58.97 31.19 58.97 31.04 58.97C31.59 59.61 31.43 61.29 31.47 62C31.72 61.78 32.95 61.78 33.19 62C32.76 62.08 31.96 61.83 31.76 62.13C32.38 62.13 33.05 62.18 33.48 62ZM36.79 60.94C36.65 61.13 35.67 61.22 36.22 61.6C36.23 61.3 37.18 61.18 36.79 60.94ZM35.35 61.74C35.26 62.35 34.04 61.94 33.63 62.26C34.19 62.64 35.67 62.16 35.35 61.74ZM31.32 62.4C31.71 62.61 33.08 62.96 33.2 62.26C32.62 62.35 31.66 62.09 31.32 62.4Z" id="d36y6r25Jt"></path><path d="M57.38 13.05C57.45 12.98 59.01 13.83 58.38 14.1C58.68 14.33 58.67 14 58.96 14.23C58.89 14.43 58.83 14.22 58.67 14.23C58.68 14.82 59 14.4 59.25 14.63C58.74 14.73 59.19 14.83 59.25 14.89C59.51 15.17 59.3 15.11 59.68 15.55C59.54 15.55 59.57 15.39 59.53 15.29C59.28 15.92 60.06 16.74 60.11 17.53C60.25 17.53 60.22 17.37 60.25 17.27C60.68 17.38 60.07 17.6 60.25 17.93C60.37 17.92 60.39 17.77 60.4 17.66C60.36 18.45 61.38 19.52 61.55 20.57C61.23 20.46 61.36 19.95 60.97 19.91C61.09 20.33 61.4 20.57 61.41 21.1C61.57 21.07 61.53 20.85 61.55 20.7C61.95 20.91 61.35 21.29 61.55 21.75C61.74 21.71 61.67 21.42 61.69 21.23C62.28 21.71 61.77 24.9 61.84 23.07C61.85 22.81 61.83 22.37 61.84 21.89C61.4 22.86 61.79 23.42 61.69 24.13C61.75 23.7 61.11 24.09 61.55 24.53C61.32 24.09 61.11 24.45 61.12 24.92C61.26 24.92 61.23 24.76 61.26 24.66C61.79 24.89 61.06 24.97 61.12 24.92C60.58 25.42 59.97 26.4 59.25 26.9C58.91 27.13 57.67 27.4 58.38 27.56C58.14 27.75 57.71 27.49 57.23 27.69C57.24 27.82 57.41 27.79 57.52 27.82C56.39 28.11 55.63 26.92 54.64 26.64C56.83 25.43 59.08 23.03 57.95 19.64C58.08 19.24 58.53 19.12 58.81 18.85C59.24 17.66 59.2 15.81 58.67 14.76C56.66 14.26 55.12 15.27 54.07 16.08C53.96 17.66 55.93 19.2 57.52 19.64C57.64 20.19 57.89 20.62 57.81 21.36C57.98 21.34 57.93 21.12 57.95 20.96C58.08 22.79 56.65 24.63 55.22 25.71C53.78 26.79 51.37 27.53 49.46 28.35C47.72 28.37 45.04 28.97 43.7 27.82C43.18 27.38 42.66 26.07 42.26 25.32C41.4 23.65 40.71 22.81 39.24 21.62C39.33 21.69 37.93 20.4 37.66 20.7C37.34 21.05 37.98 21.28 38.52 21.49C39.68 22.59 40.81 23.7 41.69 25.05C41.68 25.18 41.51 25.16 41.4 25.19C42.34 25.89 42.37 27.03 43.13 27.82C44.35 29.12 46.25 29.02 48.74 28.88C49.2 30.07 50.49 31.67 52.34 30.73C52.77 34.03 51.92 36.69 51.47 39.44C51.29 39.59 51.25 39.49 51.04 39.44C50.94 39.62 51.32 39.78 51.19 39.96C51.12 40.06 51.02 39.7 51.04 39.7C51.03 39.7 50.36 40.28 50.75 40.62C50.33 40.71 49.5 42.05 49.46 42.47C49.32 42.33 48.32 43.24 48.74 43.13C49.01 43.54 48.58 43.2 48.45 43.26C47.83 43.57 47.49 44.55 46.58 44.98C48.34 44.7 49.35 42.6 50.75 41.55C51.13 43.54 50.95 46.11 51.04 48.01C50.6 48.37 49.54 47.6 49.03 48.01C49.13 48.31 49.83 48.06 50.18 48.14C50.53 48.57 50.93 48.95 51.47 49.2C51.76 49.06 51.05 48.72 50.75 48.67C51.59 48.36 51.98 49.95 52.63 49.86C51.31 50.22 49.99 48.92 48.6 49.07C48.03 49.13 46.9 49.98 46.15 50.39C44.87 51.08 43.06 51.85 43.41 53.42C43.7 54.71 47.17 55.54 49.03 54.87C48.98 56.34 46.98 55.91 45.72 55.93C45.28 55.81 45.28 55.49 45.72 55.8C46.75 55.85 46.99 55.85 48.02 55.8C47.17 55.75 46.56 55.59 45.57 55.53C45.45 55.53 45.06 55.64 45.14 55.67C44.36 55.41 43.86 54.57 43.41 53.82C42.92 52.99 41.9 51.88 42.12 50.65C42.4 49.13 44.2 46.87 45 45.77C43.55 46.87 41.58 49.17 41.97 51.97C41.44 52.23 40.81 52.4 40.25 52.63C40.83 53 41.72 51.91 42.26 52.23C41.6 52.81 40.5 52.99 39.38 53.16C39.39 53.29 39.56 53.26 39.67 53.29C38.74 53.49 37.77 53.66 36.65 53.69C34.07 47.96 35.78 38.3 32.04 33.63C32.86 35.77 34.35 37.9 34.2 40.76C34.19 41.07 33.93 41.81 34.06 42.47C34.62 42.42 33.88 42.26 34.2 41.55C34.18 41.6 34.46 42.58 34.49 42.87C34.65 44.36 35.07 47.06 35.07 48.41C35.06 48.83 34.81 48.46 34.78 48.54C34.63 48.96 35.21 49.62 34.92 49.86C35.24 49.8 34.98 49.21 35.07 48.94C35.15 49 35.79 51.45 35.5 51.44C35.5 50.87 35.05 50.71 35.21 49.99C35.14 52.56 36.62 54.86 37.51 56.98C36.51 56.45 33.93 56.22 32.33 55.8C30.94 56.22 29.72 57.47 28.3 58.04C27.17 58.5 25.87 58.27 25.71 59.62C27.06 60.85 27.88 62.56 30.89 62.26C30.17 62.92 27.82 62.16 27.01 61.6C26.81 61.47 26.55 60.99 26.14 60.55C25.25 59.57 24.4 58.69 24.7 56.46C24.83 55.54 25.42 54.23 25.13 52.63C25.66 54.37 25.22 51.89 25.28 51.05C24.97 51.02 25.21 51.52 25.13 51.71C24.69 51.21 25.27 50.52 25.13 49.86C24.82 49.84 25.07 50.33 24.99 50.52C24.54 44.78 24.08 36.85 26 31.78C26.35 31.73 25.7 32.87 25.85 33.5C26.07 32.47 26.68 31.23 26.43 30.2C26.57 30.2 26.54 30.36 26.57 30.46C26.77 30.28 27.25 29.69 26.86 29.41C27.13 29.36 26.89 29.31 27.01 29.14C27.22 28.84 27.17 29.32 27.15 28.88C27.15 28.87 27.68 28.51 27.44 27.96C27.95 28.41 28.32 26.87 28.3 26.9C28.4 26.72 28.28 26.92 28.45 26.77C28.59 26.64 28.47 26.48 28.45 26.51C28.43 26.52 29.8 25.51 29.31 25.45C29.03 25.13 29.69 25.38 29.88 25.05C29.86 24.9 29.74 24.98 29.74 25.05C30.22 23.65 32.49 22.74 33.34 21.23C33.38 20.75 33.32 20.37 33.19 20.04C35.05 19.79 35.87 20.59 37.8 20.57C37.78 20.41 37.83 20.33 37.94 20.3C37.65 19.69 36.86 19.54 36.65 18.85C36.92 18.23 37.66 18.02 38.23 17.66C38.67 17.66 38.79 17.94 39.1 18.06C39.54 17.82 38.46 17.86 38.66 17.4C39.23 17.3 39.41 17.26 39.82 17.53C40.15 17.53 39.76 17.17 39.53 17.27C39.97 17.01 40.72 16.69 40.97 17.27C41.31 17.23 40.81 16.91 40.68 16.87C42.72 16.18 46.48 15.41 48.6 13.97C48.84 12.51 47.96 11.75 47.3 10.67C46.37 9.16 45.82 8.24 44.42 7.24C42.74 6.04 40.39 5.42 38.38 5C38.4 4.01 39.02 3.56 39.38 2.89C40.56 2.3 41.94 2.5 43.13 2.75C44.12 2.97 44.9 2.83 45.57 3.02C46.9 3.4 49.06 5.08 49.89 6.05C51.11 7.49 51.36 9.58 53.06 11.07C54 11.89 55.52 12.16 56.94 12.52C57.23 12.69 57.14 13.22 57.52 13.31C57.79 13.33 57.44 12.99 57.38 13.05ZM46.72 3.68C45.86 3.68 44.88 3.09 44.13 3.41C45.15 3.28 45.94 4.05 46.72 3.68ZM41.4 2.89C42.29 2.86 43.25 3.47 43.99 3.15C43.18 3.16 41.58 2.58 41.4 2.89ZM44.85 4.34C45 4.42 46.09 4.6 45.72 4.34C45.37 4.44 44.55 4.01 44.85 4.34ZM46.15 4.6C46.52 4.49 46.94 5 47.16 4.6C46.8 4.68 45.88 4.26 46.15 4.6ZM46.15 5.26C44.62 4.85 45.07 5.63 46.15 5.26C46.15 5.26 46.15 5.26 46.15 5.26ZM52.91 11.2C53 11.65 53.18 12.01 53.49 12.25C53.38 11.83 53.19 11.48 52.91 11.2ZM51.91 11.86C52.08 12.67 52.6 12.19 51.91 11.86C51.91 11.86 51.91 11.86 51.91 11.86ZM59.39 16.74C59.11 17 59.24 17.55 59.82 17.4C59.81 17.06 59.8 16.72 59.39 16.74ZM52.91 17.53C52.72 17.7 52.72 18.16 52.91 18.32C53.16 18.33 53.36 18.29 53.49 18.19C53.53 17.76 53.32 17.56 52.91 17.53ZM60.4 18.98C60.34 19.47 60.38 19.88 60.83 19.91C60.81 19.49 60.97 18.9 60.4 18.98ZM58.96 19.25C58.95 19.65 58.88 20.12 59.39 20.04C59.65 19.79 59.55 19.12 58.96 19.25ZM55.79 19.91C55.54 20.35 55.75 20.71 56.22 20.83C56.67 20.55 56.55 19.8 55.79 19.91ZM60.54 20.7C60.82 20.92 61.14 22.4 61.12 22.41C61.52 22.14 60.71 20.08 60.54 20.7ZM51.33 21.49C51.34 21.09 51.41 20.62 50.9 20.7C50.48 20.7 50.56 21.45 50.75 21.62C51.03 21.65 51.07 21.47 51.33 21.49ZM38.95 20.96C39.85 21.42 40.43 22.16 41.11 22.81C40.67 22.03 39.74 20.99 38.95 20.96ZM40.53 20.96C40.53 21.19 40.65 21.3 40.82 21.36C40.83 21.13 40.71 21.02 40.53 20.96ZM60.83 21.62C60.57 21.62 60.43 21.62 60.4 21.62C60.39 22.02 60.31 22.49 60.83 22.41C60.83 22.41 60.83 22.15 60.83 21.62ZM57.23 21.75C57.43 22.43 56.53 23.33 56.94 23.34C56.99 22.84 57.68 22.26 57.23 21.75ZM54.64 22.15C54.58 22.15 54.12 22.15 54.06 22.15C53.9 22.57 54.05 22.45 54.06 22.94C54.78 23.15 54.97 22.49 54.64 22.15ZM41.97 24.13C42.99 25.31 43.3 27.84 45.14 27.82C43.34 27.36 43.13 25.44 42.26 24.13C42.07 24.1 41.99 23.58 41.97 24.13ZM54.78 24.53C54.07 24.7 54.56 25.15 54.78 24.53C54.78 24.53 54.78 24.53 54.78 24.53ZM53.63 26.24C54.29 25.69 55.74 25.18 55.79 24.53C55.55 24.84 55.07 25.17 54.64 25.45C54.24 25.72 53.47 25.84 53.63 26.24ZM43.27 24.66C43.53 25.43 43.96 26.05 44.42 26.64C44.09 25.93 43.78 25.21 43.27 24.66ZM60.11 25.19C59.51 25.51 59.17 26.08 58.67 26.51C59.39 26.28 59.71 25.7 60.11 25.19ZM55.79 26.51C55.79 26.78 56.37 27.19 56.51 26.9C56.21 26.82 56.05 26.62 55.79 26.51ZM48.16 27.3C49.04 27.3 50.25 26.92 50.32 26.64C49.71 26.95 48.79 26.99 48.16 27.3ZM46.58 28.22C48.93 28.18 50.77 27.66 52.19 26.77C51.09 27.07 49.82 27.77 48.45 27.96C47.76 28.05 47 27.84 46.58 28.22ZM42.55 50.65C42.63 50.02 43.39 49.31 43.13 48.8C43.08 49.47 42.23 50.09 42.55 50.65ZM33.48 21.36C33.35 21.85 32.9 22.05 32.76 22.55C32.23 22.8 31.66 23.03 31.32 23.47C32.39 22.99 33.36 22.44 33.63 21.23C33.62 21.09 33.44 21.12 33.48 21.36ZM33.05 22.94C33.24 22.5 34.11 21.98 33.77 21.49C33.73 22.08 32.86 22.58 33.05 22.94ZM33.91 22.55C34.43 23.06 33.87 22.55 33.91 22.41C34.03 22.04 34.89 21.11 34.35 21.23C34.32 21.86 33.45 22.43 33.63 22.81C33.66 22.66 33.79 22.6 33.91 22.55ZM29.74 25.58C28.73 27.08 27.21 28.8 27.15 30.73C27.58 28.7 29.11 26.99 29.74 25.58ZM28.59 28.88C28.76 28.64 29.43 27.83 29.6 26.9C29.07 27.61 28.86 28.17 28.59 28.88C28.36 29.5 28.24 29.38 28.59 28.88ZM30.32 27.96C30.28 28.25 29.67 28.67 30.03 28.88C30.06 28.59 30.68 28.17 30.32 27.96ZM52.05 31.52C52.25 32.67 51.71 33.84 52.05 34.69C52.1 33.86 52.41 31.8 52.05 31.52ZM50.61 32.57C50.57 32.75 50.7 33.09 50.75 32.84C50.79 32.66 50.66 32.32 50.61 32.57ZM51.47 32.71C51.45 32.88 51.45 33.66 51.62 33.23C51.64 33.06 51.64 32.28 51.47 32.71ZM25.71 33.76C25.69 33.94 25.69 34.72 25.85 34.29C25.87 34.12 25.88 33.33 25.71 33.76ZM48.16 41.15C48.18 41.33 47.68 41.64 48.02 41.68C48 41.5 48.61 41.28 48.16 41.15ZM49.17 41.15C49.13 41.61 48.31 42.02 48.6 42.34C48.68 41.97 49.74 41.27 49.17 41.15ZM33.63 42.73C33.61 42.91 33.61 43.69 33.77 43.26C33.79 43.09 33.79 42.31 33.63 42.73ZM34.2 43C34.25 43.32 34.08 44.51 34.35 44.19C34.3 43.87 34.47 42.68 34.2 43ZM33.77 43.79C33.75 44.51 33.77 45.2 34.06 45.64C33.99 45.08 33.97 43.79 33.77 43.79ZM32.33 43.92C32.44 44.22 32.07 44.95 32.62 44.85C32.44 44.61 32.59 44.08 32.33 43.92ZM34.35 44.71C34.38 44.96 34.25 46.02 34.49 45.64C34.46 45.39 34.59 44.33 34.35 44.71ZM50.03 45.9C50.07 46.18 49.92 47.31 50.18 46.96C50.14 46.67 50.29 45.55 50.03 45.9ZM34.49 46.03C34.47 46.21 34.47 46.99 34.63 46.56C34.65 46.39 34.66 45.61 34.49 46.03ZM49.31 46.69L49.31 46.43L49.03 46.43L49.03 46.69L49.31 46.69ZM50.61 46.56C50.66 46.88 50.49 48.07 50.75 47.75C50.71 47.43 50.88 46.24 50.61 46.56ZM24.99 48.94C24.97 49.11 24.97 49.89 25.14 49.46C25.15 49.29 25.16 48.51 24.99 48.94ZM50.47 49.2C50.56 49.24 51.02 49.53 51.04 49.2C50.77 49.33 50.56 48.8 50.47 49.2ZM25.85 50.52C25.81 51.14 25.91 52.31 26.14 52.23C26.06 51.58 26.15 51.59 26 51.05C26.1 50.28 25.83 49.11 25.85 50.52ZM27.44 49.86C27.48 50.18 27.31 51.37 27.58 51.05C27.53 50.73 27.7 49.54 27.44 49.86ZM34.49 49.73C34.72 51.54 35.17 53.15 35.93 54.48C35.41 52.93 34.92 51.36 34.49 49.73ZM43.27 50.52C43.92 49.44 43.14 49.87 43.27 50.52C43.27 50.52 43.27 50.52 43.27 50.52ZM33.63 51.05C33.69 51.78 33.88 52.4 34.2 52.89C34.15 52.15 33.86 51.62 33.63 51.05ZM41.69 51.05C41.37 51.15 40.91 51.12 40.82 51.44C41.14 51.34 41.6 51.37 41.69 51.05ZM32.33 51.57C32.43 51.93 32.56 52.25 32.76 52.5C32.72 52.1 32.79 51.6 32.33 51.57ZM24.85 57.38C24.83 58.1 24.9 58.74 25.28 59.1C25.11 58.63 25.04 57.39 24.85 57.38ZM25.42 57.51C25.38 57.69 25.51 58.03 25.57 57.78C25.61 57.6 25.48 57.26 25.42 57.51ZM46 55.4C46.4 55.32 47.15 55.57 47.3 55.27C46.91 55.35 46.16 55.1 46 55.4Z" id="e5tNmoObq"></path><path d="M35.64 51.71C36.14 52.53 36.26 53.69 36.65 54.61C36.13 53.81 35.87 52.77 35.64 51.71Z" id="eFGVptn27"></path><path d="M55.22 27.16C54.77 27.26 54.94 26.8 54.5 26.9C54.79 26.44 55.9 27.89 55.22 27.16Z" id="anexuurf0"></path><path d="M55.94 27.69C55.81 27.36 56.98 28.37 55.94 27.69C55.94 27.69 55.94 27.69 55.94 27.69Z" id="b1Z0YSAZ0t"></path><path d="M58.67 27.56C58.35 27.35 59.2 27.09 59.39 26.9C59.77 26.74 58.82 27.35 58.67 27.56Z" id="a1F5K9Xbqg"></path><path d="M60.4 26.11C60.15 26 61.89 24.45 60.4 26.11C60.4 26.11 60.4 26.11 60.4 26.11Z" id="a2iCuoTCpj"></path><path d="M59.68 15.82C59.93 15.64 60.11 16.65 60.25 17.01C60.02 17.17 59.92 16.09 59.68 15.82Z" id="areUk8wLS"></path><path d="M44.13 3.41C44.88 3.09 45.86 3.68 46.73 3.68C45.94 4.05 45.15 3.28 44.13 3.41Z" id="h16eqE0C4V"></path><path d="M43.99 3.15C43.25 3.47 42.29 2.86 41.4 2.89C41.58 2.58 43.18 3.16 43.99 3.15Z" id="b1H2TS4o6B"></path><path d="M48.74 3.94C48.81 4.13 47.21 3.71 46.87 3.41C47.39 3.17 48.16 3.81 48.74 3.94Z" id="a2SCWWT3L"></path><path d="M50.47 5C50.35 5.3 49.96 4.77 49.75 4.73C50.15 5.47 51.2 5.6 51.76 6.19C51.96 6.14 51.77 5.95 51.62 5.92C52.27 6.16 53.33 7.17 53.78 8.03C53.3 7.83 51.85 7.72 51.76 8.3C51.5 8.23 50.87 7.3 51.47 7.64C50.23 6.49 49.46 4.91 47.88 4.07C48.1 3.86 49.91 4.68 50.47 5ZM51.91 6.19C51.78 6.46 52.28 6.78 52.34 6.45C52.13 6.42 52.09 6.23 51.91 6.19ZM52.34 6.58C52.43 7.07 52.87 7.24 53.2 7.5C53.11 7.02 52.67 6.85 52.34 6.58ZM50.9 6.45C51.55 6.55 51.66 7.16 52.19 7.37C52.08 6.91 51.06 6 50.9 6.45Z" id="cKj8VEpNp"></path><path d="M50.9 5.39C51.19 5.57 51.46 5.87 50.9 5.53C50.38 5.21 50.65 5.24 50.9 5.39Z" id="aqvtCyw4d"></path><path d="M45.72 4.34C46.09 4.6 45 4.42 44.85 4.34C44.55 4.01 45.37 4.44 45.72 4.34Z" id="aGLLuyX8"></path><path d="M47.16 4.6C46.94 5 46.52 4.49 46.15 4.6C45.88 4.26 46.8 4.68 47.16 4.6Z" id="a1YxP3OKw"></path><path d="M52.19 7.37C51.66 7.16 51.55 6.55 50.9 6.45C51.06 6 52.08 6.91 52.19 7.37Z" id="l1iT9jWfAm"></path><path d="M62.99 29.01C66.7 27.47 69.9 21.5 66.73 17.8C64.39 15.06 59.48 13.67 56.8 11.99C55.6 10.28 54.72 8.27 53.35 6.71C54.95 7.1 55.55 8.1 56.8 9.22C57.51 9.86 58.42 10.4 58.96 10.94C59.38 11.36 59.68 12.3 60.25 12.12C60.47 12.06 60.21 12.36 60.25 12.39C60.7 12.71 61.05 12.56 61.26 13.18C62.4 13.28 62.33 13.94 63.71 14.5C64.12 14.67 64.54 14.72 65 14.89C67.09 15.7 68.32 16.41 69.03 18.72C70.04 21.97 69.21 25.23 66.44 27.69C64.16 29.72 61.22 30.64 57.8 29.54C59.5 29.54 61.51 29.62 62.99 29.01ZM66.59 27.3C67.2 26.5 68.26 25.4 68.31 24.53C67.93 25.13 67.61 25.94 67.16 26.51C66.94 26.78 66.26 26.89 66.59 27.3ZM55.36 8.56C55.6 8.65 56.32 9.41 56.08 9.09C55.89 8.95 55.67 8.16 55.36 8.56ZM60.25 13.05C60.64 13.23 61.22 13.91 61.55 13.71C61.14 13.55 60.53 12.89 60.25 13.05ZM68.31 17.8C68.4 18.33 68.59 18.77 68.89 19.12C68.85 18.54 68.53 18.22 68.31 17.8ZM67.16 25.32C67.1 25.54 66.48 25.91 66.87 26.11C66.88 25.84 67.57 25.12 67.16 25.32Z" id="i4lhBjAUx"></path><path d="M66.59 27.3C66.26 26.89 66.94 26.78 67.16 26.5C67.61 25.94 67.93 25.13 68.31 24.53C68.26 25.4 67.2 26.49 66.59 27.3Z" id="e2ceX0Jv"></path><path d="M33.48 8.69C33.27 8.36 33.9 7.67 34.06 7.24C34.2 7.51 33.64 8.26 33.48 8.69Z" id="gX1XCwmcl"></path><path d="M56.08 9.09C56.32 9.41 55.6 8.65 55.36 8.56C55.67 8.16 55.89 8.95 56.08 9.09Z" id="a2tP2rQx4X"></path><path d="M25.57 11.46C26.57 10.49 27.94 9.85 29.45 9.35C28.12 10.02 26.73 10.64 25.57 11.46Z" id="a2j8ghCJUT"></path><path d="M28.01 10.8C27.76 10.6 28.57 10.27 29.02 10.28C28.84 10.59 28.25 10.54 28.01 10.8Z" id="aippXDecQ"></path><path d="M54.78 11.73C54.27 11.41 53.7 11.14 53.2 10.8C53.44 10.85 54.56 11.22 54.78 11.73Z" id="beVM6XOxw"></path><path d="M27.73 21.75C27.79 22.2 27.23 22.63 26.86 22.94C25.7 23.93 24.02 24.92 22.98 26.11C21.06 27.3 19.27 28.61 17.22 29.67C19.57 26.75 21.86 23.47 24.85 20.83C28.24 17.82 32.23 15.11 34.2 10.94C34.66 12.02 33.77 12.86 33.48 13.84C33.07 15.24 33.05 16.59 32.19 17.66C31.35 18.71 30.05 19.66 29.02 20.57C27.93 21.53 26.9 22.46 25.86 23.34C26.33 23.2 27.36 22.43 27.73 21.75ZM30.03 16.74C29.2 16.95 29.7 17.4 30.03 16.74C30.03 16.74 30.03 16.74 30.03 16.74ZM30.17 18.85C30.59 17.83 32.27 17.26 32.33 16.34C30.95 18.2 28.43 19.72 27.29 21.36C28.22 20.49 29.14 19.62 30.17 18.85ZM30.32 17.14C30.02 17.61 29.46 17.85 29.16 18.32C29.51 17.98 30.58 17.61 30.32 17.14ZM24.7 24.13C23.21 25.27 21.16 26.6 20.1 27.69C21.67 26.54 23.37 25.5 24.7 24.13ZM22.83 24.66C22.52 25.3 21.11 25.63 21.25 26.24C21.54 25.58 23.02 25.31 22.83 24.66Z" id="n6FGP53uY"></path><path d="M30.03 16.74C29.7 17.4 29.2 16.95 30.03 16.74C30.03 16.74 30.03 16.74 30.03 16.74Z" id="c3HwKAWNbb"></path><path d="M30.46 15.16C31.05 13.94 32.71 12.56 33.48 11.07C33.05 12.43 31.47 13.89 30.46 15.16Z" id="bBDcY77Xb"></path><path d="M53.49 12.25C53.18 12.01 52.99 11.65 52.91 11.2C53.19 11.48 53.38 11.83 53.49 12.25Z" id="a2wbfPhR6w"></path><path d="M30.6 12.25C30.26 12.22 30.77 11.9 30.75 11.73C31.19 11.86 30.58 12.08 30.6 12.25Z" id="b2m8kS3edF"></path><path d="M51.91 11.86C52.6 12.19 52.08 12.67 51.91 11.86C51.91 11.86 51.91 11.86 51.91 11.86Z" id="akQ02Lx81"></path><path d="M31.18 13.05C31.36 12.64 31.67 12.35 31.9 11.99C32.27 12.25 30.89 13.29 31.18 13.05Z" id="ca4px3KJ8"></path><path d="M60.25 13.97C60.15 14.3 59.87 13.73 59.53 13.84C60.03 14.31 60.82 14.55 61.55 14.89C62.21 15.21 62.86 15.68 63.42 15.69C63.47 15.97 64.07 16.48 64.86 16.48C66.9 17.91 68.14 19.9 67.74 22.41C67.14 26.17 63.63 30.02 58.38 29.28C57.88 28.36 56.05 28.87 56.51 28.35C55.79 28.59 55.54 27.71 54.35 27.69C54.34 27.48 54.42 27.19 54.21 27.16C55.5 27.65 57.36 28.76 59.39 29.01C58.77 28.75 58.17 28.46 57.38 28.35C58.21 27.79 59.47 28.81 60.54 28.88C60 28.36 58.95 28.31 58.1 28.09C59.02 27.37 60.03 28.51 61.26 28.35C60.59 28.05 59.71 27.93 58.96 27.69C60.27 26.66 61.66 25.68 61.98 23.73C62.15 23.84 62.37 23.91 62.7 23.87C62.68 23.62 62.21 23.78 62.13 23.6C62.33 20.81 61.3 19.29 60.54 17C59.89 15.04 59.24 13.75 57.81 12.92C58.36 12.98 59.47 13.68 60.25 13.97ZM59.68 27.17C59.94 27.63 61.24 27.84 61.69 27.69C61.02 27.52 60.26 27.42 59.68 27.17ZM60.83 15.03C61.07 15.55 61.83 15.61 62.27 15.95C62.02 15.43 61.32 15.33 60.83 15.03ZM60.69 15.95C61.01 15.93 61.32 16.58 61.55 16.21C61.28 16.19 60.8 15.68 60.69 15.95ZM62.56 25.19C60.95 24.86 62.49 25.57 62.56 25.19C62.56 25.19 62.56 25.19 62.56 25.19ZM60.83 26.51C61.31 26.51 62 27.01 62.41 26.64C61.78 26.77 61.22 26.16 60.83 26.51Z" id="aAmj87NDO"></path><path d="M61.55 13.71C61.22 13.91 60.64 13.22 60.25 13.05C60.53 12.89 61.14 13.55 61.55 13.71Z" id="dCR7Mw9G"></path><path d="M36.79 14.76C36.07 14.8 35.02 14.01 34.06 13.84C34.95 13.64 35.94 14.49 36.79 14.76Z" id="bZfndTjF"></path><path d="M21.25 15.55C20.93 15.3 21.72 14.93 21.82 14.63C22.19 14.49 21.42 15.34 21.25 15.55Z" id="b4Hby5FCgS"></path><path d="M21.82 16.48C21.48 16.85 21.39 17.46 20.82 17.53C21.58 16.64 22.4 15.82 23.12 14.89C23.23 15.51 22.32 15.94 21.82 16.48Z" id="a1V70jtza0"></path><path d="M36.79 16.08C35.9 16.15 34.92 15.16 33.77 15.03C34.78 14.85 35.84 15.76 36.79 16.08Z" id="eKKfYjc9f"></path><path d="M62.27 15.95C61.83 15.6 61.07 15.55 60.83 15.03C61.32 15.33 62.02 15.43 62.27 15.95Z" id="geHxZfgtE"></path><path d="M23.7 17C23.46 16.52 24.59 16.16 24.7 15.55C24.93 16.03 23.89 16.48 23.7 17Z" id="a73f2mSewt"></path><path d="M17.07 19.38C18.59 18.3 19.64 16.8 21.1 15.69C19.84 16.9 18.46 18.71 17.07 19.38Z" id="b1dNQ8YkaW"></path><path d="M57.95 16.21C57.84 14.95 58.23 18.23 57.95 16.21C57.95 16.21 57.95 16.21 57.95 16.21Z" id="lzcRUTqiY"></path><path d="M61.55 16.21C61.32 16.58 61.01 15.93 60.69 15.95C60.8 15.68 61.28 16.19 61.55 16.21Z" id="b5gJDBqvI"></path><path d="M35.64 16.87C34.98 16.6 34.43 16.22 33.63 16.08C33.69 15.88 35.43 16.34 35.64 16.87Z" id="a1xVOFLraT"></path><path d="M25.42 17.14C25.08 16.82 25.92 16.46 26 16.08C26.29 16.36 25.46 16.73 25.42 17.14Z" id="b26p9nuWbl"></path><path d="M30.17 18.85C29.14 19.62 28.22 20.49 27.29 21.36C28.43 19.72 30.95 18.2 32.33 16.34C32.27 17.26 30.59 17.83 30.17 18.85Z" id="b3FCCIQdA4"></path><path d="M29.16 18.32C29.46 17.85 30.02 17.61 30.32 17.14C30.58 17.61 29.51 17.98 29.16 18.32Z" id="b45XPUE1YP"></path><path d="M52.91 17.53C53.32 17.56 53.53 17.76 53.49 18.19C53.36 18.29 53.16 18.33 52.91 18.32C52.72 18.16 52.72 17.7 52.91 17.53ZM53.34 18.19C53.37 17.91 53.23 17.77 52.91 17.8C52.89 18.08 53.03 18.22 53.34 18.19Z" id="a5MKqPO5tH"></path><path d="M32.76 18.59C32.47 16.61 33.2 19.08 33.48 19.64C33.12 19.41 33.13 18.83 32.76 18.59Z" id="a2L86plGd8"></path><path d="M68.89 19.12C68.59 18.77 68.4 18.33 68.31 17.8C68.53 18.22 68.85 18.54 68.89 19.12Z" id="bxnZ1dvz8"></path><path d="M43.13 48.8C43.39 49.31 42.63 50.02 42.55 50.65C42.23 50.09 43.08 49.47 43.13 48.8Z" id="c4jsf0UDn9"></path><path d="M32.76 22.55C32.9 22.05 33.35 21.85 33.48 21.36C33.44 21.12 33.62 21.09 33.63 21.23C33.36 22.44 32.39 23 31.32 23.47C31.66 23.03 32.23 22.8 32.76 22.55Z" id="a8BJjRxpK"></path><path d="M33.77 21.49C34.11 21.98 33.24 22.5 33.05 22.94C32.86 22.58 33.73 22.08 33.77 21.49Z" id="e2ZxNIchvL"></path><path d="M41.11 22.81C40.43 22.16 39.84 21.42 38.95 20.96C39.74 20.99 40.67 22.03 41.11 22.81Z" id="akYY6fco7"></path><path d="M33.91 22.42C33.87 22.55 34.43 23.06 33.91 22.55C33.79 22.61 33.66 22.66 33.63 22.81C33.45 22.43 34.32 21.86 34.35 21.23C34.89 21.11 34.03 22.04 33.91 22.42Z" id="cdyHVMDj3"></path><path d="M56.94 23.34C56.53 23.33 57.43 22.43 57.23 21.75C57.68 22.26 56.99 22.84 56.94 23.34Z" id="c1au9aY21g"></path><path d="M41.97 24.13C41.99 23.58 42.07 24.1 42.26 24.13C43.13 25.44 43.34 27.36 45.14 27.83C43.3 27.84 42.99 25.31 41.97 24.13Z" id="brvDFOKjG"></path><path d="M20.1 27.69C21.16 26.6 23.21 25.27 24.7 24.13C23.37 25.5 21.67 26.54 20.1 27.69Z" id="g4EAFvlIU9"></path><path d="M54.78 24.53C54.56 25.15 54.07 24.7 54.78 24.53C54.78 24.53 54.78 24.53 54.78 24.53Z" id="f1nrUZohII"></path><path d="M53.63 26.24C53.47 25.84 54.24 25.72 54.64 25.45C55.07 25.17 55.55 24.84 55.79 24.53C55.74 25.18 54.29 25.69 53.63 26.24Z" id="b1XzKVnMyz"></path><path d="M21.25 26.24C21.11 25.63 22.52 25.3 22.83 24.66C23.02 25.31 21.54 25.58 21.25 26.24Z" id="lvOhdZZk3"></path><path d="M44.42 26.64C43.96 26.05 43.53 25.43 43.27 24.66C43.78 25.2 44.09 25.93 44.42 26.64Z" id="d3EdTWrVA"></path><path d="M62.56 25.19C62.49 25.57 60.95 24.86 62.56 25.19C62.56 25.19 62.56 25.19 62.56 25.19Z" id="bl2c6nRiV"></path><path d="M58.67 26.5C59.17 26.08 59.51 25.51 60.11 25.19C59.71 25.7 59.39 26.28 58.67 26.5Z" id="aQoTrjlE3"></path><path d="M66.87 26.11C66.48 25.91 67.1 25.54 67.16 25.32C67.57 25.12 66.88 25.84 66.87 26.11Z" id="giOFTBim4"></path><path d="M27.15 30.73C27.21 28.8 28.73 27.08 29.74 25.58C29.11 26.99 27.58 28.7 27.15 30.73Z" id="aN4jC0Pey"></path><path d="M6.71 27.56C5.18 28.96 3.39 30.78 2.11 32.44C3.36 30.25 5.97 28.16 8.01 26.24C8.47 26.34 7.11 27.2 6.71 27.56Z" id="a82Ryoiwl"></path><path d="M56.51 26.9C56.37 27.19 55.79 26.78 55.79 26.51C56.05 26.62 56.21 26.82 56.51 26.9Z" id="b1Lt2zOuVj"></path><path d="M50.32 26.64C50.25 26.92 49.04 27.3 48.16 27.3C48.79 26.99 49.71 26.95 50.32 26.64Z" id="b49zQRn7It"></path><path d="M46.58 28.22C47 27.84 47.76 28.05 48.45 27.96C49.82 27.77 51.09 27.07 52.19 26.77C50.76 27.66 48.93 28.18 46.58 28.22Z" id="gJozl2fee"></path><path d="M28.59 28.88C28.24 29.38 28.36 29.5 28.59 28.88C28.86 28.17 29.07 27.61 29.6 26.9C29.43 27.83 28.76 28.64 28.59 28.88Z" id="fAVk2dxx3"></path><path d="M51.76 30.07C51.11 30.18 50.25 29.35 50.18 28.48C51.64 28.15 52.64 27.4 54.06 27.03C54.39 28.28 54.13 29.48 53.34 30.07C52.9 30.05 52.66 30.23 52.34 30.33C51.66 30.4 51.99 30.09 52.48 30.2C52.69 29.86 51.43 29.94 51.76 30.07ZM53.78 28.48C53.82 28.79 53.75 28.99 53.63 29.14C54.07 29.35 54.01 28.46 53.78 28.48Z" id="c4Znt0osV5"></path><path d="M4.84 30.33C5.08 29.45 6.6 28.6 7.29 27.69C7.12 28.64 5.48 29.38 4.84 30.33Z" id="c1D9fUAISV"></path><path d="M56.08 28.88C56.27 28.96 56.8 28.7 56.66 29.14C55.9 28.91 55.21 28.62 54.5 28.35C54.91 28.11 55.55 28.67 56.08 28.88Z" id="f1BoPNB17T"></path><path d="M6.86 29.67C6.63 29.72 7.77 28.87 8.01 28.48C8.3 28.98 7.16 29.29 6.86 29.67Z" id="bZu3hJlJH"></path><path d="M49.17 28.88C49.07 28.52 49.85 28.97 49.75 28.62C50.12 29.55 50.6 30.38 51.76 30.6C51.25 31.2 49.74 30.48 50.18 29.8C49.89 30.15 49.55 29.45 50.03 29.8C49.89 29.14 49.48 29.15 49.17 28.88Z" id="d1b6hzm3w8"></path><path d="M8.87 35.35C11.88 33.75 14.52 31.82 16.5 29.28C14.98 31.71 12.07 34.01 8.87 35.35Z" id="c4adtXU9FS"></path><path d="M26.72 30.07C26.36 29.72 27.13 29.3 26.72 30.07C26.72 30.07 26.72 30.07 26.72 30.07Z" id="bbUZwDZ8P"></path><path d="M11.32 33.5C11.39 32.87 12.35 32.62 12.9 32.18C13.74 31.5 14.33 30.56 15.2 30.07C14.19 31.47 12.65 32.39 11.32 33.5Z" id="aVrm4AId1"></path><path d="M48.02 41.68C47.68 41.64 48.18 41.33 48.16 41.15C48.61 41.28 48 41.5 48.02 41.68Z" id="h2FQ0iHWzn"></path><path d="M48.59 42.34C48.31 42.02 49.13 41.61 49.17 41.15C49.74 41.27 48.68 41.97 48.59 42.34Z" id="b3G7nJIVf8"></path><path d="M21.82 48.14C22.03 47.28 22.17 46.35 22.69 45.77C22.64 45.06 23.09 44.82 23.26 44.32C23.07 45.33 22.26 46.92 21.82 48.14Z" id="adKojXQdh"></path><path d="M23.26 46.69C22.91 46.35 23.68 45.93 23.26 46.69C23.26 46.69 23.26 46.69 23.26 46.69Z" id="c10By3jliC"></path><path d="M45.57 54.61C44.65 54.4 44.04 53.91 43.56 53.29C44.1 50.97 46.78 50.61 48.45 49.33C50.22 49.69 52.06 49.98 53.49 50.65C53.88 51.57 54.42 52.35 54.35 53.69C54.11 53.91 53.98 54.22 53.49 54.21C53.62 52.6 53 51.67 51.76 51.31C51.69 50.89 52.42 51.21 52.48 50.91C51.83 50.61 51.26 51.27 50.47 51.31C49.99 51.34 49.52 51.12 49.03 51.18C48.65 51.22 48.4 51.49 48.02 51.57C47.38 51.72 46.52 51.39 46.15 51.97C46.36 52.15 47.11 51.72 47.59 51.71C48.64 52.2 49.24 53.09 49.17 54.61C48.28 54.86 47.01 54.39 46 54.74C45.55 54.63 46.26 54.57 46.44 54.61C46.16 54.4 45.68 54.29 45.57 54.61ZM53.49 51.31C53.8 51.54 53 51.53 53.06 51.31C53.16 51.68 53.41 52.17 53.63 51.71C53.89 53.16 54.16 51.81 53.49 51.31ZM47.87 52.23C48.19 52.83 48.7 53.24 48.88 53.95C48.85 53.1 48.5 52.54 47.87 52.23ZM47.88 52.76C47.87 52.99 47.99 53.1 48.16 53.16C48.17 52.93 48.05 52.82 47.88 52.76ZM46.87 54.35C47.08 54.27 47.61 54.5 47.59 54.21C47.38 54.29 46.84 54.06 46.87 54.35Z" id="br4JHhKMJ"></path><path d="M19.95 52.89C20.24 51.13 22.83 50.34 24.56 49.46C24.81 50.9 24.78 52.6 24.99 54.08C23.51 54.19 22.8 54.17 21.68 53.82C21.88 54.25 22.7 54.11 22.98 54.48C23.02 54.96 22.82 55.21 22.69 55.53C21.29 55.28 19.93 54.98 19.52 53.82C19.8 53.61 19.96 52.8 20.38 52.37C20.26 52.05 19.95 52.65 19.95 52.89ZM20.24 52.89C20.21 53.1 19.69 53.51 20.1 53.69C19.99 53.35 20.66 53.08 20.24 52.89ZM20.67 53.29C20.63 53.37 20.31 53.8 20.67 53.82C20.53 53.57 21.1 53.38 20.67 53.29Z" id="j1n9tcrLlw"></path><path d="M25.85 50.52C25.83 49.11 26.1 50.27 26 51.05C26.15 51.59 26.06 51.58 26.14 52.23C25.91 52.31 25.81 51.13 25.85 50.52Z" id="e5sYRe8Y0C"></path><path d="M35.93 54.48C35.17 53.15 34.72 51.54 34.49 49.73C34.92 51.36 35.41 52.93 35.93 54.48Z" id="a5qFp73UJ1"></path><path d="M43.27 50.52C43.14 49.87 43.92 49.44 43.27 50.52C43.27 50.52 43.27 50.52 43.27 50.52Z" id="afr5eDcPd"></path><path d="M34.2 52.89C33.88 52.4 33.69 51.78 33.63 51.05C33.86 51.62 34.15 52.15 34.2 52.89Z" id="b1BRpINKj"></path><path d="M49.46 54.61C49.32 53.42 49.14 52.26 48.16 51.84C48.33 51.42 49.57 51.29 50.03 51.57C50.56 51.87 50.85 52.59 51.04 52.76C51.12 52.83 51.22 52.68 51.19 52.63C51.5 53.07 51.9 53.58 51.47 54.61C50.73 54.47 50.21 54.47 49.46 54.61ZM50.61 52.5C50.74 52.23 50.24 51.91 50.18 52.23C50.38 52.27 50.42 52.45 50.61 52.5Z" id="f2d0pVmcFx"></path><path d="M51.76 53.03C51.57 52.29 51.11 51.9 50.61 51.57C52.4 51.05 53.67 52.81 53.2 54.35C53.35 53.74 52.07 54.52 52.05 54.48C51.43 54.21 51.88 53.48 51.76 53.03ZM52.91 53.82C51.99 53.67 52.6 54.22 52.91 53.82C52.91 53.82 52.91 53.82 52.91 53.82Z" id="e7quSE7Fv4"></path><path d="M48.88 53.95C48.7 53.24 48.19 52.83 47.88 52.23C48.51 52.54 48.85 53.1 48.88 53.95Z" id="abvTic2ht"></path><path d="M19.95 55.53C20.05 54.96 19.36 55.11 19.52 54.48C20.29 55.13 21.19 55.68 22.69 55.66C22.34 56.05 22.08 56.51 21.54 56.72C21 56.64 20.79 56.26 20.38 56.06C20.68 55.58 20.75 56.68 21.1 56.19C20.59 56.04 20.54 55.25 19.95 55.53Z" id="cJysr4wDT"></path><path d="M28.3 61.74C27.72 60.82 26.48 60.51 26 59.49C26.16 59.24 26.36 59.03 26.43 58.7C27.93 58.54 28.76 57.97 30.03 57.25C31.39 56.48 31.83 56.01 33.34 56.33C35.31 56.74 37.65 56.54 37.94 58.3C38.09 59.18 37.66 60.71 36.07 60.94C36.08 59.93 35.78 59.19 35.21 58.7C35.45 58.44 35.88 58.35 36.36 58.3C36.21 57.8 35.47 58.38 35.07 58.44C32.97 58.56 31.09 58.75 29.31 58.83C29.46 59.13 30.21 58.88 30.6 58.96C31.2 59.62 31.59 61.06 31.04 62C30.42 62.24 29.35 62.16 28.88 61.87C28.72 61.63 30.32 62.31 30.89 61.87C30.17 61.91 29.15 61.54 28.3 61.74ZM36.36 60.68C37.01 60.57 37.29 60.12 37.51 59.62C37.02 59.88 36.84 60.42 36.36 60.68ZM29.74 61.47C29.95 61.4 30.48 61.62 30.46 61.34C30.25 61.41 29.72 61.19 29.74 61.47Z" id="bclWnjWJ"></path><path d="M37.51 59.62C37.29 60.12 37.01 60.57 36.36 60.68C36.84 60.42 37.02 59.88 37.51 59.62Z" id="b10tc8fbP2"></path><path d="M31.47 62C31.43 61.29 31.59 59.61 31.04 58.96C31.19 58.96 32.46 58.96 32.62 58.96C32.96 59.93 33.55 60.66 33.48 62C33.05 62.17 32.38 62.13 31.76 62.13C31.96 61.83 32.76 62.08 33.19 62C32.95 61.78 31.72 61.78 31.47 62ZM32.91 61.6C31.68 61.44 32.29 62.01 32.91 61.6C32.91 61.6 32.91 61.6 32.91 61.6Z" id="dxtaWR706"></path><path d="M33.91 61.73C34.42 61.5 35.08 61.39 35.35 60.94C35.53 61.28 34.7 61.84 33.91 61.73Z" id="d1lJ1xcKnp"></path><path d="M36.22 61.6C35.67 61.21 36.65 61.13 36.79 60.94C37.18 61.18 36.23 61.3 36.22 61.6Z" id="cAcs70AH2"></path><path d="M33.63 62.26C34.04 61.94 35.26 62.35 35.35 61.73C35.67 62.16 34.19 62.64 33.63 62.26Z" id="aatkeG5TZ"></path><path d="M54.06 10.8C54.06 10.7 54.06 9.85 54.06 9.75C54.56 10 54.74 10.54 54.93 11.07C54.48 11.13 54.37 10.88 54.06 10.8Z" id="c9WLiZA6n"></path><path d="M58.67 18.46C58.66 18.49 58.47 18.27 58.53 18.19C58.28 18.52 58 19.4 57.52 19.38C55.92 18.91 55.04 17.78 54.21 16.61C55.05 15.6 56.76 14.75 58.53 15.03C58.68 16.31 59.13 17.39 58.67 18.46ZM58.24 15.69C58.23 15.92 58.27 16.1 58.38 16.21C58.26 17.92 58.93 15.86 58.24 15.69ZM57.95 16.21C58.23 18.23 57.84 14.95 57.95 16.21C57.95 16.21 57.95 16.21 57.95 16.21Z" id="e2sYyfgmn2"></path><path d="M59.82 17.4C59.24 17.55 59.11 17 59.39 16.74C59.8 16.72 59.81 17.06 59.82 17.4Z" id="hMJ0TtuMh"></path><path d="M60.83 19.91C60.38 19.88 60.34 19.47 60.4 18.98C60.97 18.9 60.81 19.49 60.83 19.91Z" id="aGmitQDU"></path><path d="M59.39 20.04C58.88 20.12 58.95 19.65 58.96 19.25C59.55 19.12 59.65 19.79 59.39 20.04Z" id="a3ZDwe5Xec"></path><path d="M60.83 21.62C60.83 22.1 60.83 22.36 60.83 22.41C60.31 22.49 60.39 22.02 60.4 21.62C60.4 21.62 60.54 21.62 60.83 21.62Z" id="aa8vkS1ZO"></path><path d="M24.7 49.2C23.24 49.84 21.63 50.34 20.67 51.44C21.39 48.19 22.9 44.51 24.13 41.28C24.57 43.69 24.63 46.46 24.7 49.2ZM21.82 48.14C22.26 46.92 23.07 45.33 23.26 44.32C23.09 44.82 22.64 45.06 22.69 45.77C22.17 46.35 22.03 47.28 21.82 48.14ZM24.27 46.03C24.23 46.27 23.75 46.77 24.13 46.96C24.06 46.62 24.64 46.21 24.27 46.03ZM23.26 46.69C23.68 45.93 22.91 46.35 23.26 46.69C23.26 46.69 23.26 46.69 23.26 46.69Z" id="a2FlqloECM"></path><path d="M45.62 14.32C45.62 13.97 45.62 13.14 45.62 12.78C46.11 13.04 46.29 13.57 46.48 14.1C46.03 14.17 45.92 14.4 45.62 14.32Z" id="b2CmF3cPwY"></path></defs><g><g><g><use xlink:href="#b7aWGZZfyW" opacity="1" fill="#000000" fill-opacity="1"></use><g><use xlink:href="#b7aWGZZfyW" opacity="1" fill-opacity="0" stroke="#000000" stroke-width="1" stroke-opacity="0"></use></g></g><g><use xlink:href="#bZSA24hla" opacity="1" fill="#000000" fill-opacity="1"></use><g><use xlink:href="#bZSA24hla" opacity="1" fill-opacity="0" stroke="#000000" stroke-width="1" stroke-opacity="0"></use></g></g><g><use xlink:href="#gZUH4Luil" opacity="1" fill="#000000" fill-opacity="1"></use><g><use xlink:href="#gZUH4Luil" opacity="1" fill-opacity="0" stroke="#000000" stroke-width="1" stroke-opacity="0"></use></g></g><g><use xlink:href="#b348iwGdA5" opacity="1" fill="#000000" fill-opacity="1"></use><g><use xlink:href="#b348iwGdA5" opacity="1" fill-opacity="0" stroke="#000000" stroke-width="1" stroke-opacity="0"></use></g></g><g><use xlink:href="#aRF47dI8h" opacity="1" fill="#8b5c29" fill-opacity="1"></use><g><use xlink:href="#aRF47dI8h" opacity="1" fill-opacity="0" stroke="#000000" stroke-width="1" stroke-opacity="0"></use></g></g><g><use xlink:href="#a1U9F70fLR" opacity="1" fill="#8b5c29" fill-opacity="1"></use><g><use xlink:href="#a1U9F70fLR" opacity="1" fill-opacity="0" stroke="#000000" stroke-width="1" stroke-opacity="0"></use></g></g><g><use xlink:href="#fdiWWDDMX" opacity="1" fill="#000000" fill-opacity="1"></use><g><use xlink:href="#fdiWWDDMX" opacity="1" fill-opacity="0" stroke="#000000" stroke-width="1" stroke-opacity="0"></use></g></g><g><use xlink:href="#bWUwh3MN5" opacity="1" fill="#ffffff" fill-opacity="1"></use><g><use xlink:href="#bWUwh3MN5" opacity="1" fill-opacity="0" stroke="#000000" stroke-width="1" stroke-opacity="0"></use></g></g><g><use xlink:href="#f1caPpfPNz" opacity="1" fill="#000000" fill-opacity="1"></use><g><use xlink:href="#f1caPpfPNz" opacity="1" fill-opacity="0" stroke="#000000" stroke-width="1" stroke-opacity="0"></use></g></g><g><use xlink:href="#afkDOLYVI" opacity="1" fill="#000000" fill-opacity="1"></use><g><use xlink:href="#afkDOLYVI" opacity="1" fill-opacity="0" stroke="#000000" stroke-width="1" stroke-opacity="0"></use></g></g><g><use xlink:href="#bb7EzlQuh" opacity="1" fill="#ffffff" fill-opacity="1"></use><g><use xlink:href="#bb7EzlQuh" opacity="1" fill-opacity="0" stroke="#000000" stroke-width="1" stroke-opacity="0"></use></g></g><g><use xlink:href="#a2CVWUljJg" opacity="1" fill="#000000" fill-opacity="1"></use><g><use xlink:href="#a2CVWUljJg" opacity="1" fill-opacity="0" stroke="#000000" stroke-width="1" stroke-opacity="0"></use></g></g><g><use xlink:href="#kUoFSI2Lt" opacity="1" fill="#000000" fill-opacity="1"></use><g><use xlink:href="#kUoFSI2Lt" opacity="1" fill-opacity="0" stroke="#000000" stroke-width="1" stroke-opacity="0"></use></g></g><g><use xlink:href="#aDQ6thQPr" opacity="1" fill="#000000" fill-opacity="1"></use><g><use xlink:href="#aDQ6thQPr" opacity="1" fill-opacity="0" stroke="#000000" stroke-width="1" stroke-opacity="0"></use></g></g><g><use xlink:href="#e2eSLJDfDA" opacity="1" fill="#ffffff" fill-opacity="1"></use><g><use xlink:href="#e2eSLJDfDA" opacity="1" fill-opacity="0" stroke="#000000" stroke-width="1" stroke-opacity="0"></use></g></g><g><use xlink:href="#jOxsc7Uru" opacity="1" fill="#000000" fill-opacity="1"></use><g><use xlink:href="#jOxsc7Uru" opacity="1" fill-opacity="0" stroke="#000000" stroke-width="1" stroke-opacity="0"></use></g></g><g><use xlink:href="#e5qodTjdI1" opacity="1" fill="#ffffff" fill-opacity="1"></use><g><use xlink:href="#e5qodTjdI1" opacity="1" fill-opacity="0" stroke="#000000" stroke-width="1" stroke-opacity="0"></use></g></g><g><use xlink:href="#d4WsnPTyjj" opacity="1" fill="#000000" fill-opacity="1"></use><g><use xlink:href="#d4WsnPTyjj" opacity="1" fill-opacity="0" stroke="#000000" stroke-width="1" stroke-opacity="0"></use></g></g><g><use xlink:href="#b1GmlodwpS" opacity="1" fill="#000000" fill-opacity="1"></use><g><use xlink:href="#b1GmlodwpS" opacity="1" fill-opacity="0" stroke="#000000" stroke-width="1" stroke-opacity="0"></use></g></g><g><use xlink:href="#bVocWd1b1" opacity="1" fill="#000000" fill-opacity="1"></use><g><use xlink:href="#bVocWd1b1" opacity="1" fill-opacity="0" stroke="#000000" stroke-width="1" stroke-opacity="0"></use></g></g><g><use xlink:href="#a6Pl9yCEdD" opacity="1" fill="#000000" fill-opacity="1"></use><g><use xlink:href="#a6Pl9yCEdD" opacity="1" fill-opacity="0" stroke="#000000" stroke-width="1" stroke-opacity="0"></use></g></g><g><use xlink:href="#bJyVCzcct" opacity="1" fill="#000000" fill-opacity="1"></use><g><use xlink:href="#bJyVCzcct" opacity="1" fill-opacity="0" stroke="#000000" stroke-width="1" stroke-opacity="0"></use></g></g><g><use xlink:href="#ayzFwgD1i" opacity="1" fill="#000000" fill-opacity="1"></use><g><use xlink:href="#ayzFwgD1i" opacity="1" fill-opacity="0" stroke="#000000" stroke-width="1" stroke-opacity="0"></use></g></g><g><use xlink:href="#d1oCgHqtA" opacity="1" fill="#000000" fill-opacity="1"></use><g><use xlink:href="#d1oCgHqtA" opacity="1" fill-opacity="0" stroke="#000000" stroke-width="1" stroke-opacity="0"></use></g></g><g><use xlink:href="#a3CniCswZ1" opacity="1" fill="#000000" fill-opacity="1"></use><g><use xlink:href="#a3CniCswZ1" opacity="1" fill-opacity="0" stroke="#000000" stroke-width="1" stroke-opacity="0"></use></g></g><g><use xlink:href="#e12TVQ7W88" opacity="1" fill="#000000" fill-opacity="1"></use><g><use xlink:href="#e12TVQ7W88" opacity="1" fill-opacity="0" stroke="#000000" stroke-width="1" stroke-opacity="0"></use></g></g><g><use xlink:href="#ch8i41zlP" opacity="1" fill="#000000" fill-opacity="1"></use><g><use xlink:href="#ch8i41zlP" opacity="1" fill-opacity="0" stroke="#000000" stroke-width="1" stroke-opacity="0"></use></g></g><g><use xlink:href="#i1DfFPn1j7" opacity="1" fill="#000000" fill-opacity="1"></use><g><use xlink:href="#i1DfFPn1j7" opacity="1" fill-opacity="0" stroke="#000000" stroke-width="1" stroke-opacity="0"></use></g></g><g><use xlink:href="#awxo4Ys64" opacity="1" fill="#000000" fill-opacity="1"></use><g><use xlink:href="#awxo4Ys64" opacity="1" fill-opacity="0" stroke="#000000" stroke-width="1" stroke-opacity="0"></use></g></g><g><use xlink:href="#a2FugOHN3" opacity="1" fill="#000000" fill-opacity="1"></use><g><use xlink:href="#a2FugOHN3" opacity="1" fill-opacity="0" stroke="#000000" stroke-width="1" stroke-opacity="0"></use></g></g><g><use xlink:href="#aINyVnR7z" opacity="1" fill="#000000" fill-opacity="1"></use><g><use xlink:href="#aINyVnR7z" opacity="1" fill-opacity="0" stroke="#000000" stroke-width="1" stroke-opacity="0"></use></g></g><g><use xlink:href="#a1fKGpcqsL" opacity="1" fill="#000000" fill-opacity="1"></use><g><use xlink:href="#a1fKGpcqsL" opacity="1" fill-opacity="0" stroke="#000000" stroke-width="1" stroke-opacity="0"></use></g></g><g><use xlink:href="#cmv9uFZ3p" opacity="1" fill="#000000" fill-opacity="1"></use><g><use xlink:href="#cmv9uFZ3p" opacity="1" fill-opacity="0" stroke="#000000" stroke-width="1" stroke-opacity="0"></use></g></g><g><use xlink:href="#a3dzGkfccj" opacity="1" fill="#000000" fill-opacity="1"></use><g><use xlink:href="#a3dzGkfccj" opacity="1" fill-opacity="0" stroke="#000000" stroke-width="1" stroke-opacity="0"></use></g></g><g><use xlink:href="#aVpiccxqq" opacity="1" fill="#000000" fill-opacity="1"></use><g><use xlink:href="#aVpiccxqq" opacity="1" fill-opacity="0" stroke="#000000" stroke-width="1" stroke-opacity="0"></use></g></g><g><use xlink:href="#cdQ1qOCy9" opacity="1" fill="#000000" fill-opacity="1"></use><g><use xlink:href="#cdQ1qOCy9" opacity="1" fill-opacity="0" stroke="#000000" stroke-width="1" stroke-opacity="0"></use></g></g><g><use xlink:href="#c6UsUd8EJ" opacity="1" fill="#000000" fill-opacity="1"></use><g><use xlink:href="#c6UsUd8EJ" opacity="1" fill-opacity="0" stroke="#000000" stroke-width="1" stroke-opacity="0"></use></g></g><g><use xlink:href="#a1pLGzc2xQ" opacity="1" fill="#000000" fill-opacity="1"></use><g><use xlink:href="#a1pLGzc2xQ" opacity="1" fill-opacity="0" stroke="#000000" stroke-width="1" stroke-opacity="0"></use></g></g><g><use xlink:href="#dTz7ti9NC" opacity="1" fill="#000000" fill-opacity="1"></use><g><use xlink:href="#dTz7ti9NC" opacity="1" fill-opacity="0" stroke="#000000" stroke-width="1" stroke-opacity="0"></use></g></g><g><use xlink:href="#dJZfCwSDd" opacity="1" fill="#000000" fill-opacity="1"></use><g><use xlink:href="#dJZfCwSDd" opacity="1" fill-opacity="0" stroke="#000000" stroke-width="1" stroke-opacity="0"></use></g></g><g><use xlink:href="#c2sQS3AIAk" opacity="1" fill="#000000" fill-opacity="1"></use><g><use xlink:href="#c2sQS3AIAk" opacity="1" fill-opacity="0" stroke="#000000" stroke-width="1" stroke-opacity="0"></use></g></g><g><use xlink:href="#b7f5Mk99c" opacity="1" fill="#000000" fill-opacity="1"></use><g><use xlink:href="#b7f5Mk99c" opacity="1" fill-opacity="0" stroke="#000000" stroke-width="1" stroke-opacity="0"></use></g></g><g><use xlink:href="#a2NAyzhxx" opacity="1" fill="#000000" fill-opacity="1"></use><g><use xlink:href="#a2NAyzhxx" opacity="1" fill-opacity="0" stroke="#000000" stroke-width="1" stroke-opacity="0"></use></g></g><g><use xlink:href="#i1ocJdfHC" opacity="1" fill="#000000" fill-opacity="1"></use><g><use xlink:href="#i1ocJdfHC" opacity="1" fill-opacity="0" stroke="#000000" stroke-width="1" stroke-opacity="0"></use></g></g><g><use xlink:href="#iefvO9zym" opacity="1" fill="#000000" fill-opacity="1"></use><g><use xlink:href="#iefvO9zym" opacity="1" fill-opacity="0" stroke="#000000" stroke-width="1" stroke-opacity="0"></use></g></g><g><use xlink:href="#b2AV3oTRv0" opacity="1" fill="#000000" fill-opacity="1"></use><g><use xlink:href="#b2AV3oTRv0" opacity="1" fill-opacity="0" stroke="#000000" stroke-width="1" stroke-opacity="0"></use></g></g><g><use xlink:href="#alXOik9Ab" opacity="1" fill="#000000" fill-opacity="1"></use><g><use xlink:href="#alXOik9Ab" opacity="1" fill-opacity="0" stroke="#000000" stroke-width="1" stroke-opacity="0"></use></g></g><g><use xlink:href="#a1WjUWEL9J" opacity="1" fill="#000000" fill-opacity="1"></use><g><use xlink:href="#a1WjUWEL9J" opacity="1" fill-opacity="0" stroke="#000000" stroke-width="1" stroke-opacity="0"></use></g></g><g><use xlink:href="#azjGmxEXw" opacity="1" fill="#000000" fill-opacity="1"></use><g><use xlink:href="#azjGmxEXw" opacity="1" fill-opacity="0" stroke="#000000" stroke-width="1" stroke-opacity="0"></use></g></g><g><use xlink:href="#dgSaTQcuo" opacity="1" fill="#8b5c29" fill-opacity="1"></use><g><use xlink:href="#dgSaTQcuo" opacity="1" fill-opacity="0" stroke="#000000" stroke-width="1" stroke-opacity="0"></use></g></g><g><use xlink:href="#czJRmR4vb" opacity="1" fill="#000000" fill-opacity="1"></use><g><use xlink:href="#czJRmR4vb" opacity="1" fill-opacity="0" stroke="#000000" stroke-width="1" stroke-opacity="0"></use></g></g><g><use xlink:href="#a1GyMIIYAC" opacity="1" fill="#ffffff" fill-opacity="1"></use><g><use xlink:href="#a1GyMIIYAC" opacity="1" fill-opacity="0" stroke="#000000" stroke-width="1" stroke-opacity="0"></use></g></g><g><use xlink:href="#dAOWX9xy2" opacity="1" fill="#ffffff" fill-opacity="1"></use><g><use xlink:href="#dAOWX9xy2" opacity="1" fill-opacity="0" stroke="#000000" stroke-width="1" stroke-opacity="0"></use></g></g><g><use xlink:href="#jl47NXiXm" opacity="1" fill="#ffffff" fill-opacity="1"></use><g><use xlink:href="#jl47NXiXm" opacity="1" fill-opacity="0" stroke="#000000" stroke-width="1" stroke-opacity="0"></use></g></g><g><use xlink:href="#a88xSqrH1" opacity="1" fill="#000000" fill-opacity="1"></use><g><use xlink:href="#a88xSqrH1" opacity="1" fill-opacity="0" stroke="#000000" stroke-width="1" stroke-opacity="0"></use></g></g><g><use xlink:href="#a1i4Z6K0xT" opacity="1" fill="#000000" fill-opacity="1"></use><g><use xlink:href="#a1i4Z6K0xT" opacity="1" fill-opacity="0" stroke="#000000" stroke-width="1" stroke-opacity="0"></use></g></g><g><use xlink:href="#b5hbgUHadT" opacity="1" fill="#ffffff" fill-opacity="1"></use><g><use xlink:href="#b5hbgUHadT" opacity="1" fill-opacity="0" stroke="#000000" stroke-width="1" stroke-opacity="0"></use></g></g><g><use xlink:href="#e10ILs7Pka" opacity="1" fill="#000000" fill-opacity="1"></use><g><use xlink:href="#e10ILs7Pka" opacity="1" fill-opacity="0" stroke="#000000" stroke-width="1" stroke-opacity="0"></use></g></g><g><use xlink:href="#hYILk7SS" opacity="1" fill="#000000" fill-opacity="1"></use><g><use xlink:href="#hYILk7SS" opacity="1" fill-opacity="0" stroke="#000000" stroke-width="1" stroke-opacity="0"></use></g></g><g><use xlink:href="#e1svHL3mlO" opacity="1" fill="#000000" fill-opacity="1"></use><g><use xlink:href="#e1svHL3mlO" opacity="1" fill-opacity="0" stroke="#000000" stroke-width="1" stroke-opacity="0"></use></g></g><g><use xlink:href="#aVEVBFHcd" opacity="1" fill="#8b5c29" fill-opacity="1"></use><g><use xlink:href="#aVEVBFHcd" opacity="1" fill-opacity="0" stroke="#000000" stroke-width="1" stroke-opacity="0"></use></g></g><g><use xlink:href="#a29l4OHRiL" opacity="1" fill="#000000" fill-opacity="1"></use><g><use xlink:href="#a29l4OHRiL" opacity="1" fill-opacity="0" stroke="#000000" stroke-width="1" stroke-opacity="0"></use></g></g><g><use xlink:href="#eBhMJefBA" opacity="1" fill="#000000" fill-opacity="1"></use><g><use xlink:href="#eBhMJefBA" opacity="1" fill-opacity="0" stroke="#000000" stroke-width="1" stroke-opacity="0"></use></g></g><g><use xlink:href="#a2mj9E3udq" opacity="1" fill="#000000" fill-opacity="1"></use><g><use xlink:href="#a2mj9E3udq" opacity="1" fill-opacity="0" stroke="#000000" stroke-width="1" stroke-opacity="0"></use></g></g><g><use xlink:href="#dgdw7efd" opacity="1" fill="#ffffff" fill-opacity="1"></use><g><use xlink:href="#dgdw7efd" opacity="1" fill-opacity="0" stroke="#000000" stroke-width="1" stroke-opacity="0"></use></g></g><g><use xlink:href="#a390NrJcAz" opacity="1" fill="#8b5c29" fill-opacity="1"></use><g><use xlink:href="#a390NrJcAz" opacity="1" fill-opacity="0" stroke="#000000" stroke-width="1" stroke-opacity="0"></use></g></g><g><use xlink:href="#d36y6r25Jt" opacity="1" fill="#000000" fill-opacity="1"></use><g><use xlink:href="#d36y6r25Jt" opacity="1" fill-opacity="0" stroke="#000000" stroke-width="1" stroke-opacity="0"></use></g></g><g><use xlink:href="#e5tNmoObq" opacity="1" fill="#ffffff" fill-opacity="1"></use><g><use xlink:href="#e5tNmoObq" opacity="1" fill-opacity="0" stroke="#000000" stroke-width="1" stroke-opacity="0"></use></g></g><g><use xlink:href="#eFGVptn27" opacity="1" fill="#ffffff" fill-opacity="1"></use><g><use xlink:href="#eFGVptn27" opacity="1" fill-opacity="0" stroke="#000000" stroke-width="1" stroke-opacity="0"></use></g></g><g><use xlink:href="#anexuurf0" opacity="1" fill="#ffffff" fill-opacity="1"></use><g><use xlink:href="#anexuurf0" opacity="1" fill-opacity="0" stroke="#000000" stroke-width="1" stroke-opacity="0"></use></g></g><g><use xlink:href="#b1Z0YSAZ0t" opacity="1" fill="#ffffff" fill-opacity="1"></use><g><use xlink:href="#b1Z0YSAZ0t" opacity="1" fill-opacity="0" stroke="#000000" stroke-width="1" stroke-opacity="0"></use></g></g><g><use xlink:href="#a1F5K9Xbqg" opacity="1" fill="#ffffff" fill-opacity="1"></use><g><use xlink:href="#a1F5K9Xbqg" opacity="1" fill-opacity="0" stroke="#000000" stroke-width="1" stroke-opacity="0"></use></g></g><g><use xlink:href="#a2iCuoTCpj" opacity="1" fill="#ffffff" fill-opacity="1"></use><g><use xlink:href="#a2iCuoTCpj" opacity="1" fill-opacity="0" stroke="#000000" stroke-width="1" stroke-opacity="0"></use></g></g><g><use xlink:href="#areUk8wLS" opacity="1" fill="#ffffff" fill-opacity="1"></use><g><use xlink:href="#areUk8wLS" opacity="1" fill-opacity="0" stroke="#000000" stroke-width="1" stroke-opacity="0"></use></g></g><g><use xlink:href="#h16eqE0C4V" opacity="1" fill="#000000" fill-opacity="1"></use><g><use xlink:href="#h16eqE0C4V" opacity="1" fill-opacity="0" stroke="#000000" stroke-width="1" stroke-opacity="0"></use></g></g><g><use xlink:href="#b1H2TS4o6B" opacity="1" fill="#000000" fill-opacity="1"></use><g><use xlink:href="#b1H2TS4o6B" opacity="1" fill-opacity="0" stroke="#000000" stroke-width="1" stroke-opacity="0"></use></g></g><g><use xlink:href="#a2SCWWT3L" opacity="1" fill="#8b5c29" fill-opacity="1"></use><g><use xlink:href="#a2SCWWT3L" opacity="1" fill-opacity="0" stroke="#000000" stroke-width="1" stroke-opacity="0"></use></g></g><g><use xlink:href="#cKj8VEpNp" opacity="1" fill="#8b5c29" fill-opacity="1"></use><g><use xlink:href="#cKj8VEpNp" opacity="1" fill-opacity="0" stroke="#000000" stroke-width="1" stroke-opacity="0"></use></g></g><g><use xlink:href="#aqvtCyw4d" opacity="1" fill="#8b5c29" fill-opacity="1"></use><g><use xlink:href="#aqvtCyw4d" opacity="1" fill-opacity="0" stroke="#000000" stroke-width="1" stroke-opacity="0"></use></g></g><g><use xlink:href="#aGLLuyX8" opacity="1" fill="#000000" fill-opacity="1"></use><g><use xlink:href="#aGLLuyX8" opacity="1" fill-opacity="0" stroke="#000000" stroke-width="1" stroke-opacity="0"></use></g></g><g><use xlink:href="#a1YxP3OKw" opacity="1" fill="#000000" fill-opacity="1"></use><g><use xlink:href="#a1YxP3OKw" opacity="1" fill-opacity="0" stroke="#000000" stroke-width="1" stroke-opacity="0"></use></g></g><g><use xlink:href="#l1iT9jWfAm" opacity="1" fill="#000000" fill-opacity="1"></use><g><use xlink:href="#l1iT9jWfAm" opacity="1" fill-opacity="0" stroke="#000000" stroke-width="1" stroke-opacity="0"></use></g></g><g><use xlink:href="#i4lhBjAUx" opacity="1" fill="#8b5c29" fill-opacity="1"></use><g><use xlink:href="#i4lhBjAUx" opacity="1" fill-opacity="0" stroke="#000000" stroke-width="1" stroke-opacity="0"></use></g></g><g><use xlink:href="#e2ceX0Jv" opacity="1" fill="#000000" fill-opacity="1"></use><g><use xlink:href="#e2ceX0Jv" opacity="1" fill-opacity="0" stroke="#000000" stroke-width="1" stroke-opacity="0"></use></g></g><g><use xlink:href="#gX1XCwmcl" opacity="1" fill="#000000" fill-opacity="1"></use><g><use xlink:href="#gX1XCwmcl" opacity="1" fill-opacity="0" stroke="#000000" stroke-width="1" stroke-opacity="0"></use></g></g><g><use xlink:href="#a2tP2rQx4X" opacity="1" fill="#000000" fill-opacity="1"></use><g><use xlink:href="#a2tP2rQx4X" opacity="1" fill-opacity="0" stroke="#000000" stroke-width="1" stroke-opacity="0"></use></g></g><g><use xlink:href="#a2j8ghCJUT" opacity="1" fill="#000000" fill-opacity="1"></use><g><use xlink:href="#a2j8ghCJUT" opacity="1" fill-opacity="0" stroke="#000000" stroke-width="1" stroke-opacity="0"></use></g></g><g><use xlink:href="#aippXDecQ" opacity="1" fill="#000000" fill-opacity="1"></use><g><use xlink:href="#aippXDecQ" opacity="1" fill-opacity="0" stroke="#000000" stroke-width="1" stroke-opacity="0"></use></g></g><g><use xlink:href="#beVM6XOxw" opacity="1" fill="#8b5c29" fill-opacity="1"></use><g><use xlink:href="#beVM6XOxw" opacity="1" fill-opacity="0" stroke="#000000" stroke-width="1" stroke-opacity="0"></use></g></g><g><use xlink:href="#n6FGP53uY" opacity="1" fill="#3f3f3f" fill-opacity="1"></use><g><use xlink:href="#n6FGP53uY" opacity="1" fill-opacity="0" stroke="#000000" stroke-width="1" stroke-opacity="0"></use></g></g><g><use xlink:href="#c3HwKAWNbb" opacity="1" fill="#000000" fill-opacity="1"></use><g><use xlink:href="#c3HwKAWNbb" opacity="1" fill-opacity="0" stroke="#000000" stroke-width="1" stroke-opacity="0"></use></g></g><g><use xlink:href="#bBDcY77Xb" opacity="1" fill="#000000" fill-opacity="1"></use><g><use xlink:href="#bBDcY77Xb" opacity="1" fill-opacity="0" stroke="#000000" stroke-width="1" stroke-opacity="0"></use></g></g><g><use xlink:href="#a2wbfPhR6w" opacity="1" fill="#000000" fill-opacity="1"></use><g><use xlink:href="#a2wbfPhR6w" opacity="1" fill-opacity="0" stroke="#000000" stroke-width="1" stroke-opacity="0"></use></g></g><g><use xlink:href="#b2m8kS3edF" opacity="1" fill="#000000" fill-opacity="1"></use><g><use xlink:href="#b2m8kS3edF" opacity="1" fill-opacity="0" stroke="#000000" stroke-width="1" stroke-opacity="0"></use></g></g><g><use xlink:href="#akQ02Lx81" opacity="1" fill="#000000" fill-opacity="1"></use><g><use xlink:href="#akQ02Lx81" opacity="1" fill-opacity="0" stroke="#000000" stroke-width="1" stroke-opacity="0"></use></g></g><g><use xlink:href="#ca4px3KJ8" opacity="1" fill="#000000" fill-opacity="1"></use><g><use xlink:href="#ca4px3KJ8" opacity="1" fill-opacity="0" stroke="#000000" stroke-width="1" stroke-opacity="0"></use></g></g><g><use xlink:href="#aAmj87NDO" opacity="1" fill="#3f3f3f" fill-opacity="1"></use><g><use xlink:href="#aAmj87NDO" opacity="1" fill-opacity="0" stroke="#000000" stroke-width="1" stroke-opacity="0"></use></g></g><g><use xlink:href="#dCR7Mw9G" opacity="1" fill="#000000" fill-opacity="1"></use><g><use xlink:href="#dCR7Mw9G" opacity="1" fill-opacity="0" stroke="#000000" stroke-width="1" stroke-opacity="0"></use></g></g><g><use xlink:href="#bZfndTjF" opacity="1" fill="#000000" fill-opacity="1"></use><g><use xlink:href="#bZfndTjF" opacity="1" fill-opacity="0" stroke="#000000" stroke-width="1" stroke-opacity="0"></use></g></g><g><use xlink:href="#b4Hby5FCgS" opacity="1" fill="#000000" fill-opacity="1"></use><g><use xlink:href="#b4Hby5FCgS" opacity="1" fill-opacity="0" stroke="#000000" stroke-width="1" stroke-opacity="0"></use></g></g><g><use xlink:href="#a1V70jtza0" opacity="1" fill="#000000" fill-opacity="1"></use><g><use xlink:href="#a1V70jtza0" opacity="1" fill-opacity="0" stroke="#000000" stroke-width="1" stroke-opacity="0"></use></g></g><g><use xlink:href="#eKKfYjc9f" opacity="1" fill="#000000" fill-opacity="1"></use><g><use xlink:href="#eKKfYjc9f" opacity="1" fill-opacity="0" stroke="#000000" stroke-width="1" stroke-opacity="0"></use></g></g><g><use xlink:href="#geHxZfgtE" opacity="1" fill="#000000" fill-opacity="1"></use><g><use xlink:href="#geHxZfgtE" opacity="1" fill-opacity="0" stroke="#000000" stroke-width="1" stroke-opacity="0"></use></g></g><g><use xlink:href="#a73f2mSewt" opacity="1" fill="#000000" fill-opacity="1"></use><g><use xlink:href="#a73f2mSewt" opacity="1" fill-opacity="0" stroke="#000000" stroke-width="1" stroke-opacity="0"></use></g></g><g><use xlink:href="#b1dNQ8YkaW" opacity="1" fill="#000000" fill-opacity="1"></use><g><use xlink:href="#b1dNQ8YkaW" opacity="1" fill-opacity="0" stroke="#000000" stroke-width="1" stroke-opacity="0"></use></g></g><g><use xlink:href="#lzcRUTqiY" opacity="1" fill="#000000" fill-opacity="1"></use><g><use xlink:href="#lzcRUTqiY" opacity="1" fill-opacity="0" stroke="#000000" stroke-width="1" stroke-opacity="0"></use></g></g><g><use xlink:href="#b5gJDBqvI" opacity="1" fill="#000000" fill-opacity="1"></use><g><use xlink:href="#b5gJDBqvI" opacity="1" fill-opacity="0" stroke="#000000" stroke-width="1" stroke-opacity="0"></use></g></g><g><use xlink:href="#a1xVOFLraT" opacity="1" fill="#000000" fill-opacity="1"></use><g><use xlink:href="#a1xVOFLraT" opacity="1" fill-opacity="0" stroke="#000000" stroke-width="1" stroke-opacity="0"></use></g></g><g><use xlink:href="#b26p9nuWbl" opacity="1" fill="#000000" fill-opacity="1"></use><g><use xlink:href="#b26p9nuWbl" opacity="1" fill-opacity="0" stroke="#000000" stroke-width="1" stroke-opacity="0"></use></g></g><g><use xlink:href="#b3FCCIQdA4" opacity="1" fill="#000000" fill-opacity="1"></use><g><use xlink:href="#b3FCCIQdA4" opacity="1" fill-opacity="0" stroke="#000000" stroke-width="1" stroke-opacity="0"></use></g></g><g><use xlink:href="#b45XPUE1YP" opacity="1" fill="#000000" fill-opacity="1"></use><g><use xlink:href="#b45XPUE1YP" opacity="1" fill-opacity="0" stroke="#000000" stroke-width="1" stroke-opacity="0"></use></g></g><g><use xlink:href="#a5MKqPO5tH" opacity="1" fill="#000000" fill-opacity="1"></use><g><use xlink:href="#a5MKqPO5tH" opacity="1" fill-opacity="0" stroke="#000000" stroke-width="1" stroke-opacity="0"></use></g></g><g><use xlink:href="#a2L86plGd8" opacity="1" fill="#000000" fill-opacity="1"></use><g><use xlink:href="#a2L86plGd8" opacity="1" fill-opacity="0" stroke="#000000" stroke-width="1" stroke-opacity="0"></use></g></g><g><use xlink:href="#bxnZ1dvz8" opacity="1" fill="#000000" fill-opacity="1"></use><g><use xlink:href="#bxnZ1dvz8" opacity="1" fill-opacity="0" stroke="#000000" stroke-width="1" stroke-opacity="0"></use></g></g><g><use xlink:href="#c4jsf0UDn9" opacity="1" fill="#000000" fill-opacity="1"></use><g><use xlink:href="#c4jsf0UDn9" opacity="1" fill-opacity="0" stroke="#000000" stroke-width="1" stroke-opacity="0"></use></g></g><g><use xlink:href="#a8BJjRxpK" opacity="1" fill="#000000" fill-opacity="1"></use><g><use xlink:href="#a8BJjRxpK" opacity="1" fill-opacity="0" stroke="#000000" stroke-width="1" stroke-opacity="0"></use></g></g><g><use xlink:href="#e2ZxNIchvL" opacity="1" fill="#000000" fill-opacity="1"></use><g><use xlink:href="#e2ZxNIchvL" opacity="1" fill-opacity="0" stroke="#000000" stroke-width="1" stroke-opacity="0"></use></g></g><g><use xlink:href="#akYY6fco7" opacity="1" fill="#000000" fill-opacity="1"></use><g><use xlink:href="#akYY6fco7" opacity="1" fill-opacity="0" stroke="#000000" stroke-width="1" stroke-opacity="0"></use></g></g><g><use xlink:href="#cdyHVMDj3" opacity="1" fill="#000000" fill-opacity="1"></use><g><use xlink:href="#cdyHVMDj3" opacity="1" fill-opacity="0" stroke="#000000" stroke-width="1" stroke-opacity="0"></use></g></g><g><use xlink:href="#c1au9aY21g" opacity="1" fill="#000000" fill-opacity="1"></use><g><use xlink:href="#c1au9aY21g" opacity="1" fill-opacity="0" stroke="#000000" stroke-width="1" stroke-opacity="0"></use></g></g><g><use xlink:href="#brvDFOKjG" opacity="1" fill="#000000" fill-opacity="1"></use><g><use xlink:href="#brvDFOKjG" opacity="1" fill-opacity="0" stroke="#000000" stroke-width="1" stroke-opacity="0"></use></g></g><g><use xlink:href="#g4EAFvlIU9" opacity="1" fill="#000000" fill-opacity="1"></use><g><use xlink:href="#g4EAFvlIU9" opacity="1" fill-opacity="0" stroke="#000000" stroke-width="1" stroke-opacity="0"></use></g></g><g><use xlink:href="#f1nrUZohII" opacity="1" fill="#000000" fill-opacity="1"></use><g><use xlink:href="#f1nrUZohII" opacity="1" fill-opacity="0" stroke="#000000" stroke-width="1" stroke-opacity="0"></use></g></g><g><use xlink:href="#b1XzKVnMyz" opacity="1" fill="#000000" fill-opacity="1"></use><g><use xlink:href="#b1XzKVnMyz" opacity="1" fill-opacity="0" stroke="#000000" stroke-width="1" stroke-opacity="0"></use></g></g><g><use xlink:href="#lvOhdZZk3" opacity="1" fill="#000000" fill-opacity="1"></use><g><use xlink:href="#lvOhdZZk3" opacity="1" fill-opacity="0" stroke="#000000" stroke-width="1" stroke-opacity="0"></use></g></g><g><use xlink:href="#d3EdTWrVA" opacity="1" fill="#000000" fill-opacity="1"></use><g><use xlink:href="#d3EdTWrVA" opacity="1" fill-opacity="0" stroke="#000000" stroke-width="1" stroke-opacity="0"></use></g></g><g><use xlink:href="#bl2c6nRiV" opacity="1" fill="#000000" fill-opacity="1"></use><g><use xlink:href="#bl2c6nRiV" opacity="1" fill-opacity="0" stroke="#000000" stroke-width="1" stroke-opacity="0"></use></g></g><g><use xlink:href="#aQoTrjlE3" opacity="1" fill="#000000" fill-opacity="1"></use><g><use xlink:href="#aQoTrjlE3" opacity="1" fill-opacity="0" stroke="#000000" stroke-width="1" stroke-opacity="0"></use></g></g><g><use xlink:href="#giOFTBim4" opacity="1" fill="#000000" fill-opacity="1"></use><g><use xlink:href="#giOFTBim4" opacity="1" fill-opacity="0" stroke="#000000" stroke-width="1" stroke-opacity="0"></use></g></g><g><use xlink:href="#aN4jC0Pey" opacity="1" fill="#000000" fill-opacity="1"></use><g><use xlink:href="#aN4jC0Pey" opacity="1" fill-opacity="0" stroke="#000000" stroke-width="1" stroke-opacity="0"></use></g></g><g><use xlink:href="#a82Ryoiwl" opacity="1" fill="#000000" fill-opacity="1"></use><g><use xlink:href="#a82Ryoiwl" opacity="1" fill-opacity="0" stroke="#000000" stroke-width="1" stroke-opacity="0"></use></g></g><g><use xlink:href="#b1Lt2zOuVj" opacity="1" fill="#000000" fill-opacity="1"></use><g><use xlink:href="#b1Lt2zOuVj" opacity="1" fill-opacity="0" stroke="#000000" stroke-width="1" stroke-opacity="0"></use></g></g><g><use xlink:href="#b49zQRn7It" opacity="1" fill="#000000" fill-opacity="1"></use><g><use xlink:href="#b49zQRn7It" opacity="1" fill-opacity="0" stroke="#000000" stroke-width="1" stroke-opacity="0"></use></g></g><g><use xlink:href="#gJozl2fee" opacity="1" fill="#000000" fill-opacity="1"></use><g><use xlink:href="#gJozl2fee" opacity="1" fill-opacity="0" stroke="#000000" stroke-width="1" stroke-opacity="0"></use></g></g><g><use xlink:href="#fAVk2dxx3" opacity="1" fill="#000000" fill-opacity="1"></use><g><use xlink:href="#fAVk2dxx3" opacity="1" fill-opacity="0" stroke="#000000" stroke-width="1" stroke-opacity="0"></use></g></g><g><use xlink:href="#c4Znt0osV5" opacity="1" fill="#f6a0a6" fill-opacity="1"></use><g><use xlink:href="#c4Znt0osV5" opacity="1" fill-opacity="0" stroke="#000000" stroke-width="1" stroke-opacity="0"></use></g></g><g><use xlink:href="#c1D9fUAISV" opacity="1" fill="#000000" fill-opacity="1"></use><g><use xlink:href="#c1D9fUAISV" opacity="1" fill-opacity="0" stroke="#000000" stroke-width="1" stroke-opacity="0"></use></g></g><g><use xlink:href="#f1BoPNB17T" opacity="1" fill="#8b5c29" fill-opacity="1"></use><g><use xlink:href="#f1BoPNB17T" opacity="1" fill-opacity="0" stroke="#000000" stroke-width="1" stroke-opacity="0"></use></g></g><g><use xlink:href="#bZu3hJlJH" opacity="1" fill="#000000" fill-opacity="1"></use><g><use xlink:href="#bZu3hJlJH" opacity="1" fill-opacity="0" stroke="#000000" stroke-width="1" stroke-opacity="0"></use></g></g><g><use xlink:href="#d1b6hzm3w8" opacity="1" fill="#f6a0a6" fill-opacity="1"></use><g><use xlink:href="#d1b6hzm3w8" opacity="1" fill-opacity="0" stroke="#000000" stroke-width="1" stroke-opacity="0"></use></g></g><g><use xlink:href="#c4adtXU9FS" opacity="1" fill="#000000" fill-opacity="1"></use><g><use xlink:href="#c4adtXU9FS" opacity="1" fill-opacity="0" stroke="#000000" stroke-width="1" stroke-opacity="0"></use></g></g><g><use xlink:href="#bbUZwDZ8P" opacity="1" fill="#ffffff" fill-opacity="1"></use><g><use xlink:href="#bbUZwDZ8P" opacity="1" fill-opacity="0" stroke="#000000" stroke-width="1" stroke-opacity="0"></use></g></g><g><use xlink:href="#aVrm4AId1" opacity="1" fill="#000000" fill-opacity="1"></use><g><use xlink:href="#aVrm4AId1" opacity="1" fill-opacity="0" stroke="#000000" stroke-width="1" stroke-opacity="0"></use></g></g><g><use xlink:href="#h2FQ0iHWzn" opacity="1" fill="#000000" fill-opacity="1"></use><g><use xlink:href="#h2FQ0iHWzn" opacity="1" fill-opacity="0" stroke="#000000" stroke-width="1" stroke-opacity="0"></use></g></g><g><use xlink:href="#b3G7nJIVf8" opacity="1" fill="#000000" fill-opacity="1"></use><g><use xlink:href="#b3G7nJIVf8" opacity="1" fill-opacity="0" stroke="#000000" stroke-width="1" stroke-opacity="0"></use></g></g><g><use xlink:href="#adKojXQdh" opacity="1" fill="#000000" fill-opacity="1"></use><g><use xlink:href="#adKojXQdh" opacity="1" fill-opacity="0" stroke="#000000" stroke-width="1" stroke-opacity="0"></use></g></g><g><use xlink:href="#c10By3jliC" opacity="1" fill="#000000" fill-opacity="1"></use><g><use xlink:href="#c10By3jliC" opacity="1" fill-opacity="0" stroke="#000000" stroke-width="1" stroke-opacity="0"></use></g></g><g><use xlink:href="#br4JHhKMJ" opacity="1" fill="#8b5c29" fill-opacity="1"></use><g><use xlink:href="#br4JHhKMJ" opacity="1" fill-opacity="0" stroke="#000000" stroke-width="1" stroke-opacity="0"></use></g></g><g><use xlink:href="#j1n9tcrLlw" opacity="1" fill="#8b5c29" fill-opacity="1"></use><g><use xlink:href="#j1n9tcrLlw" opacity="1" fill-opacity="0" stroke="#000000" stroke-width="1" stroke-opacity="0"></use></g></g><g><use xlink:href="#e5sYRe8Y0C" opacity="1" fill="#000000" fill-opacity="1"></use><g><use xlink:href="#e5sYRe8Y0C" opacity="1" fill-opacity="0" stroke="#000000" stroke-width="1" stroke-opacity="0"></use></g></g><g><use xlink:href="#a5qFp73UJ1" opacity="1" fill="#000000" fill-opacity="1"></use><g><use xlink:href="#a5qFp73UJ1" opacity="1" fill-opacity="0" stroke="#000000" stroke-width="1" stroke-opacity="0"></use></g></g><g><use xlink:href="#afr5eDcPd" opacity="1" fill="#000000" fill-opacity="1"></use><g><use xlink:href="#afr5eDcPd" opacity="1" fill-opacity="0" stroke="#000000" stroke-width="1" stroke-opacity="0"></use></g></g><g><use xlink:href="#b1BRpINKj" opacity="1" fill="#000000" fill-opacity="1"></use><g><use xlink:href="#b1BRpINKj" opacity="1" fill-opacity="0" stroke="#000000" stroke-width="1" stroke-opacity="0"></use></g></g><g><use xlink:href="#f2d0pVmcFx" opacity="1" fill="#8b5c29" fill-opacity="1"></use><g><use xlink:href="#f2d0pVmcFx" opacity="1" fill-opacity="0" stroke="#000000" stroke-width="1" stroke-opacity="0"></use></g></g><g><use xlink:href="#e7quSE7Fv4" opacity="1" fill="#8b5c29" fill-opacity="1"></use><g><use xlink:href="#e7quSE7Fv4" opacity="1" fill-opacity="0" stroke="#000000" stroke-width="1" stroke-opacity="0"></use></g></g><g><use xlink:href="#abvTic2ht" opacity="1" fill="#000000" fill-opacity="1"></use><g><use xlink:href="#abvTic2ht" opacity="1" fill-opacity="0" stroke="#000000" stroke-width="1" stroke-opacity="0"></use></g></g><g><use xlink:href="#cJysr4wDT" opacity="1" fill="#ffffff" fill-opacity="1"></use><g><use xlink:href="#cJysr4wDT" opacity="1" fill-opacity="0" stroke="#000000" stroke-width="1" stroke-opacity="0"></use></g></g><g><use xlink:href="#bclWnjWJ" opacity="1" fill="#8b5c29" fill-opacity="1"></use><g><use xlink:href="#bclWnjWJ" opacity="1" fill-opacity="0" stroke="#000000" stroke-width="1" stroke-opacity="0"></use></g></g><g><use xlink:href="#b10tc8fbP2" opacity="1" fill="#000000" fill-opacity="1"></use><g><use xlink:href="#b10tc8fbP2" opacity="1" fill-opacity="0" stroke="#000000" stroke-width="1" stroke-opacity="0"></use></g></g><g><use xlink:href="#dxtaWR706" opacity="1" fill="#8b5c29" fill-opacity="1"></use><g><use xlink:href="#dxtaWR706" opacity="1" fill-opacity="0" stroke="#000000" stroke-width="1" stroke-opacity="0"></use></g></g><g><use xlink:href="#d1lJ1xcKnp" opacity="1" fill="#000000" fill-opacity="1"></use><g><use xlink:href="#d1lJ1xcKnp" opacity="1" fill-opacity="0" stroke="#000000" stroke-width="1" stroke-opacity="0"></use></g></g><g><use xlink:href="#cAcs70AH2" opacity="1" fill="#ffffff" fill-opacity="1"></use><g><use xlink:href="#cAcs70AH2" opacity="1" fill-opacity="0" stroke="#000000" stroke-width="1" stroke-opacity="0"></use></g></g><g><use xlink:href="#aatkeG5TZ" opacity="1" fill="#ffffff" fill-opacity="1"></use><g><use xlink:href="#aatkeG5TZ" opacity="1" fill-opacity="0" stroke="#000000" stroke-width="1" stroke-opacity="0"></use></g></g><g><use xlink:href="#c9WLiZA6n" opacity="1" fill="#ffffff" fill-opacity="1"></use><g><use xlink:href="#c9WLiZA6n" opacity="1" fill-opacity="0" stroke="#000000" stroke-width="1" stroke-opacity="0"></use></g></g><g><use xlink:href="#e2sYyfgmn2" opacity="1" fill="#000000" fill-opacity="1"></use><g><use xlink:href="#e2sYyfgmn2" opacity="1" fill-opacity="0" stroke="#000000" stroke-width="1" stroke-opacity="0"></use></g></g><g><use xlink:href="#hMJ0TtuMh" opacity="1" fill="#000000" fill-opacity="1"></use><g><use xlink:href="#hMJ0TtuMh" opacity="1" fill-opacity="0" stroke="#000000" stroke-width="1" stroke-opacity="0"></use></g></g><g><use xlink:href="#aGmitQDU" opacity="1" fill="#000000" fill-opacity="1"></use><g><use xlink:href="#aGmitQDU" opacity="1" fill-opacity="0" stroke="#000000" stroke-width="1" stroke-opacity="0"></use></g></g><g><use xlink:href="#a3ZDwe5Xec" opacity="1" fill="#000000" fill-opacity="1"></use><g><use xlink:href="#a3ZDwe5Xec" opacity="1" fill-opacity="0" stroke="#000000" stroke-width="1" stroke-opacity="0"></use></g></g><g><use xlink:href="#aa8vkS1ZO" opacity="1" fill="#000000" fill-opacity="1"></use><g><use xlink:href="#aa8vkS1ZO" opacity="1" fill-opacity="0" stroke="#000000" stroke-width="1" stroke-opacity="0"></use></g></g><g><use xlink:href="#a2FlqloECM" opacity="1" fill="#ffffff" fill-opacity="1"></use><g><use xlink:href="#a2FlqloECM" opacity="1" fill-opacity="0" stroke="#000000" stroke-width="1" stroke-opacity="0"></use></g></g><g><use xlink:href="#b2CmF3cPwY" opacity="1" fill="#ffffff" fill-opacity="1"></use><g><use xlink:href="#b2CmF3cPwY" opacity="1" fill-opacity="0" stroke="#000000" stroke-width="1" stroke-opacity="0"></use></g></g></g></g></svg>