<?xml version="1.0" encoding="UTF-8" standalone="no"?>
<!DOCTYPE svg PUBLIC "-//W3C//DTD SVG 1.1//EN" "http://www.w3.org/Graphics/SVG/1.1/DTD/svg11.dtd">
<svg version="1.1"  viewBox="0 0 300 300" width="300" height="300">
<path d="M136.69 93.71C125.54 84.12 108.86 83.85 106.97 83.85C106.8 83.85 106.62 83.85 106.45 83.86C106.05 83.86 102.81 83.86 102.41 83.86C100.62 83.86 84.61 84.14 72.9 93.58C58.45 105.25 42.46 128.78 41.34 130.44C32.87 142.44 27.68 150.24 27.68 158.92C27.68 174.55 40.46 184.65 60.25 184.65C69.14 184.65 140.27 184.65 149.16 184.65C168.94 184.65 181.72 174.54 181.72 158.89C181.72 150.14 176.52 142.35 168.03 130.36C167.96 130.27 167.89 130.17 167.82 130.08C165.69 127.07 150.05 105.25 136.69 93.71ZM60.25 172.55C53.13 172.55 41.19 170.78 41.19 158.92C41.19 153.85 44.91 148.03 52.8 136.86C52.82 136.82 52.85 136.78 52.87 136.74C53.03 136.51 68.76 113.22 81.94 102.58C89.98 96.09 102.29 95.97 102.41 95.97C102.87 95.97 106.53 95.97 106.99 95.97C107.12 95.97 107.24 95.97 107.37 95.96C109.57 96.03 120.65 96.69 127.33 102.44C140.19 113.55 156.44 136.61 156.61 136.84C156.68 136.95 156.75 137.05 156.83 137.15C165.23 149.01 168.21 154.11 168.21 158.89C168.21 170.18 157.85 172.55 149.16 172.55C131.38 172.55 69.14 172.55 60.25 172.55Z" id="dh8SNtVTl"></path><path d="M99.28 34.59C99.28 15.19 87.34 0 72.09 0C56.84 0 44.9 15.19 44.9 34.59C44.9 53.99 56.84 69.19 72.09 69.19C87.34 69.19 99.28 53.99 99.28 34.59ZM85.77 34.59C85.77 47.84 78.56 57.08 72.09 57.08C65.62 57.08 58.41 47.84 58.41 34.59C58.41 21.34 65.62 12.11 72.09 12.11C78.56 12.11 85.77 21.34 85.77 34.59Z" id="a8ttqmbOr"></path><path d="M44.06 109.33C55.91 104.39 59.22 88.89 51.57 74.04C45.64 62.54 34.67 54.81 24.26 54.81C21.6 54.81 19.06 55.3 16.7 56.28C4.82 61.2 1.51 76.7 9.16 91.58C15.09 103.08 26.07 110.8 36.48 110.8C36.48 110.8 36.48 110.8 36.48 110.8C39.94 110.48 42.47 109.99 44.06 109.33ZM22.36 67.27C22.93 67.03 23.56 66.92 24.26 66.92C28.5 66.92 35.22 71.19 39.3 79.11C43.87 88 42.58 96.6 38.39 98.34C37.81 98.58 37.19 98.7 36.48 98.7C32.23 98.7 25.51 94.42 21.43 86.51C16.85 77.61 18.15 69.01 22.36 67.27Z" id="ahXQltEsj"></path><path d="M164.48 34.59C164.48 15.19 152.54 0 137.3 0C122.04 0 110.09 15.19 110.09 34.59C110.09 53.99 122.04 69.19 137.3 69.19C152.54 69.19 164.48 53.99 164.48 34.59ZM150.97 34.59C150.97 47.84 143.77 57.08 137.3 57.08C130.82 57.08 123.6 47.84 123.6 34.59C123.6 21.34 130.82 12.11 137.3 12.11C143.77 12.11 150.97 21.34 150.97 34.59Z" id="b3ksdHv0U"></path><path d="M185.13 54.81C174.74 54.81 163.77 62.54 157.84 74.03C150.16 88.88 153.46 104.39 165.38 109.35C167.73 110.31 170.27 110.8 172.93 110.8C183.34 110.8 194.31 103.08 200.24 91.58C207.89 76.71 204.58 61.2 192.71 56.28C190.35 55.3 187.8 54.81 185.13 54.81ZM172.93 98.7C172.22 98.7 171.59 98.58 171.04 98.36C166.81 96.6 165.51 88 170.1 79.12C174.19 71.19 180.9 66.91 185.13 66.91C185.84 66.91 186.46 67.03 187.03 67.26C191.25 69.01 192.55 77.62 187.97 86.51C183.89 94.42 177.17 98.7 172.93 98.7Z" id="ad01SCGum"></path></svg>